<?xml version="1.0" encoding="UTF-8"?>
<svg version="1.1" xmlns="http://www.w3.org/2000/svg" width="1024" height="1024">
<path d="M0 0 C337.92 0 675.84 0 1024 0 C1024 337.92 1024 675.84 1024 1024 C686.08 1024 348.16 1024 0 1024 C0 686.08 0 348.16 0 0 Z " fill="#F6F6F6" transform="translate(0,0)"/>
<path d="M0 0 C4.338882 0.00457238 8.67774861 -0.00248273 13.01662743 -0.00795984 C21.49175509 -0.01680521 29.96684712 -0.01495357 38.44197612 -0.00913456 C45.33685351 -0.00459853 52.23172098 -0.00401352 59.12659943 -0.00618219 C60.11182999 -0.00648866 61.09706055 -0.00679513 62.11214658 -0.00711088 C64.1142888 -0.0077504 66.11643103 -0.00839883 68.11857326 -0.00905606 C86.84781289 -0.01474521 105.57703288 -0.00822391 124.3062693 0.00254467 C140.33830748 0.01147749 156.37031669 0.0099276 172.40235436 0.00070715 C191.06781186 -0.01002298 209.73325218 -0.01419455 228.39871234 -0.00806832 C230.3933657 -0.0074313 232.38801906 -0.00680255 234.38267243 -0.00618219 C235.3638049 -0.00587364 236.34493736 -0.00556509 237.35580112 -0.00524719 C244.2330524 -0.00352836 251.11029269 -0.00641777 257.98754227 -0.0111413 C266.38205946 -0.01678078 274.7765393 -0.0151698 283.17105227 -0.00457981 C287.44497026 0.00063616 291.71882624 0.00280422 295.99274361 -0.00387812 C361.84420154 -0.09828503 420.48407629 16.59701575 468.32935631 63.65598059 C481.40452519 76.91785914 492.52937757 92.15251985 501.82154381 108.26144934 C502.23501061 108.97462317 502.64847741 109.68779699 503.0744735 110.42258215 C514.45286943 130.31946973 522.02622777 151.88577263 526.82154381 174.26144934 C527.03182213 175.20053137 527.24210045 176.1396134 527.45875084 177.10715246 C535.06712636 212.74543397 533.80680725 253.81505358 525.82154381 289.26144934 C525.58628991 290.35280188 525.351036 291.44415442 525.10865319 292.56857824 C522.06671506 306.48565469 517.97933612 319.98448059 512.82154381 333.26144934 C512.55793053 333.94046301 512.29431725 334.61947668 512.02271569 335.31906652 C501.95363616 360.71888743 486.98163799 383.92666271 468.82154381 404.26144934 C468.06486413 405.12769934 467.30818444 405.99394934 466.52857506 406.88644934 C457.68962951 416.89870625 448.33410199 426.02109936 437.82154381 434.26144934 C436.84830163 435.05164465 435.87505944 435.84183996 434.87232506 436.65598059 C426.02142056 443.70783048 416.61716865 449.61037043 406.82154381 455.26144934 C406.12013268 455.66782629 405.41872155 456.07420324 404.69605553 456.49289465 C384.38277372 468.12106022 361.69421492 475.75056032 338.82154381 480.51144934 C338.11247887 480.66259192 337.40341393 480.81373449 336.67286217 480.96945715 C317.88124167 484.62103644 298.84316103 484.5607187 279.78363276 484.53755772 C275.91778537 484.53505787 272.05196071 484.5441444 268.18612206 484.55159521 C260.63991289 484.56425467 253.09373944 484.56614697 245.54752143 484.56379495 C239.40545788 484.56200188 233.26340505 484.56378245 227.12134278 484.56801939 C225.80319502 484.56891217 225.80319502 484.56891217 224.45841802 484.56982299 C222.67242052 484.57103492 220.88642302 484.57224905 219.10042552 484.57346537 C202.40360979 484.58430702 185.70681432 484.58219438 169.00999746 484.57608052 C153.78517855 484.57091342 138.56042365 484.58216742 123.33561739 484.60117874 C107.64464494 484.62061967 91.95370269 484.62880228 76.26271814 484.62505549 C67.47669903 484.62315303 58.69073438 484.6255371 49.90472519 484.63977003 C42.42561404 484.65176488 34.9465909 484.6529989 27.46747836 484.64097986 C23.66300722 484.63514763 19.85869638 484.63383169 16.05423653 484.64598227 C-0.895242 484.69645859 -17.42870817 484.07825027 -34.17845619 481.26144934 C-35.99900126 480.95636686 -35.99900126 480.95636686 -37.85632503 480.6451211 C-40.46111342 480.18277178 -43.03532865 479.65522486 -45.61595619 479.07394934 C-47.00971473 478.76312414 -47.00971473 478.76312414 -48.43163002 478.44601965 C-99.16040968 466.61566936 -146.07529758 437.43104172 -178.17845619 396.26144934 C-179.0450592 395.19480963 -179.91364422 394.12977799 -180.78392494 393.06613684 C-211.58175654 355.15816148 -228.31256273 309.42089259 -234.17845619 261.26144934 C-234.28230628 260.46351965 -234.38615638 259.66558996 -234.49315345 258.84348059 C-235.51867361 249.68568564 -235.36451359 240.45170853 -235.36375892 231.24924231 C-235.36593068 228.29613007 -235.38409472 225.34340133 -235.40306556 222.39035559 C-235.45248469 206.16441018 -234.42164076 190.26854987 -230.92845619 174.38644934 C-230.60312904 172.88247595 -230.60312904 172.88247595 -230.27122962 171.34811926 C-222.3525228 135.60974503 -207.47023498 101.98527761 -183.17845619 74.26144934 C-182.48622962 73.45965246 -181.79400306 72.65785559 -181.08079994 71.83176184 C-149.46334899 35.91066511 -108.65606192 13.36583105 -61.74095619 4.07394934 C-60.58152503 3.84131384 -60.58152503 3.84131384 -59.39867103 3.60397863 C-39.6898506 -0.06915619 -19.96215676 -0.03118679 0 0 Z " fill="#2197A2" transform="translate(365.17845618724823,256.7385506629944)"/>
<path d="M0 0 C8.34547474 4.7035161 11.1077648 12.52118855 13.67248535 21.32806396 C14.53139967 24.62484593 15.34381014 27.92984993 16.140625 31.2421875 C16.60986805 33.14952817 17.07912347 35.05686583 17.54885387 36.96408653 C18.04710919 38.99171303 18.54212994 41.02010648 19.03640747 43.04870605 C20.79744621 50.26977057 22.59233093 57.48247654 24.38671875 64.6953125 C24.57025343 65.43366333 24.75378811 66.17201416 24.94288445 66.93273926 C43.67963082 142.25684781 66.20284323 216.44364513 89.57411194 290.43249512 C90.17785881 292.34446785 90.78076971 294.25670451 91.38366699 296.16894531 C95.63935492 309.65341054 99.97054101 323.08830846 104.8125 336.375 C106.47596694 333.28768295 107.54416754 330.23821097 108.53320312 326.87670898 C108.86148605 325.76755127 109.18976898 324.65839355 109.52799988 323.515625 C109.87969742 322.31292969 110.23139496 321.11023438 110.59375 319.87109375 C110.96369583 318.61627197 111.33364166 317.3614502 111.71479797 316.06860352 C112.71255679 312.68338404 113.70546294 309.29675846 114.69751358 305.90986252 C115.51694772 303.11524724 116.33981854 300.32164904 117.16269779 297.52804661 C120.84534797 285.02353208 124.5162026 272.51609366 128.05078125 259.96875 C128.39476456 258.74998924 128.39476456 258.74998924 128.74569702 257.50660706 C129.75223205 253.93448887 130.7498543 250.36032596 131.73046875 246.78100586 C135.65004242 232.73924371 140.03264613 218.51548802 153.27981567 210.69020081 C163.00896706 205.63793763 173.5259781 205.91558153 184.1953125 205.94140625 C185.86197114 205.93683475 187.52862789 205.93152632 189.19528198 205.92552185 C192.66981724 205.91663832 196.14412203 205.91896108 199.61865234 205.92895508 C204.05131519 205.94046875 208.48318418 205.92017269 212.91574287 205.89103794 C216.35091114 205.87262167 219.78589075 205.87297864 223.22109604 205.87867546 C224.85482781 205.87882785 226.48857303 205.87285214 228.12225723 205.86038399 C245.44802741 205.74670069 245.44802741 205.74670069 251.8125 210.375 C255.53000159 214.38239665 257.11072571 218.01630848 257.375 223.5 C257.04927013 229.3993299 254.66984435 232.61541061 250.4375 236.625 C245.64717233 239.81855178 241.16510569 240.62374945 235.47509766 240.63037109 C234.240065 240.63733002 233.00503235 240.64428894 231.73257446 240.65145874 C231.08007343 240.6507777 230.4275724 240.65009666 229.75529861 240.64939499 C227.69412337 240.64842219 225.63345894 240.66145996 223.57235718 240.67837524 C217.71592119 240.72441881 211.85954072 240.74923845 206.00292969 240.75585938 C202.41016423 240.76089839 198.81793609 240.78526448 195.22535324 240.82118607 C193.20706004 240.83562979 191.1886487 240.828375 189.1703186 240.82064819 C180.81573154 240.90991399 174.85469257 241.55737368 168.5625 247.5 C164.15798685 254.7359859 161.90399658 263.00548254 159.66796875 271.1171875 C159.38124802 272.13901627 159.09452728 273.16084503 158.79911804 274.21363831 C158.18249776 276.41292316 157.56827306 278.61288083 156.95623779 280.81344604 C155.31230445 286.72145938 153.64841423 292.62386639 151.98828125 298.52734375 C151.47539551 300.35420464 151.47539551 300.35420464 150.95214844 302.2179718 C147.55824651 314.30165032 144.12339628 326.3733654 140.65664673 338.43634033 C140.01742729 340.66315164 139.37999691 342.8904774 138.74447632 345.11834717 C126.83184032 386.87247042 126.83184032 386.87247042 115.8125 394.375 C111.6598463 396.66988757 107.46965526 397.0477002 102.8125 396.375 C96.10333587 394.35200776 91.6427929 390.10327489 87.8125 384.375 C86.62168924 381.94658674 85.50507459 379.54248569 84.44262695 377.06005859 C84.13901151 376.35693731 83.83539606 375.65381603 83.52258015 374.92938805 C80.41821438 367.6272086 77.8141756 360.18332507 75.29296875 352.6640625 C74.79217913 351.18694842 74.29091936 349.70999367 73.78923035 348.23318481 C72.45784331 344.30588512 71.1366879 340.37522605 69.81908417 336.44328308 C68.99168556 333.97519848 68.16211664 331.5078521 67.33209229 329.04064941 C38.71210018 243.91685909 15.89539586 157.37252946 -6.1875 70.375 C-10.59556627 90.84086638 -14.98124508 111.31089985 -19.25657654 131.80495834 C-20.40382271 137.30085616 -21.55589718 142.79574489 -22.70738983 148.29075432 C-23.68066828 152.93782143 -24.65052624 157.58556209 -25.61425781 162.23461914 C-26.57649168 166.87532641 -27.54751522 171.51411997 -28.52428436 176.15178871 C-28.88617196 177.8775745 -29.24501355 179.60400259 -29.60041046 181.3311367 C-35.75051736 211.19336511 -35.75051736 211.19336511 -45.1875 222.375 C-45.75984375 223.08140625 -46.3321875 223.7878125 -46.921875 224.515625 C-56.78188795 235.55546855 -70.95614803 239.32992869 -85.23323059 240.54979134 C-90.0084418 240.80866987 -94.78248173 240.7966745 -99.5625 240.7734375 C-101.06746562 240.77546683 -102.57243026 240.77838533 -104.07739258 240.78213501 C-107.19671196 240.78650724 -110.31577006 240.78028778 -113.43505859 240.76611328 C-117.41357859 240.748904 -121.39149638 240.75896825 -125.36999512 240.77683067 C-128.46368907 240.78770638 -131.55724158 240.78420694 -134.65093994 240.7764473 C-136.1180224 240.77446191 -137.58511815 240.7768454 -139.05218506 240.78388596 C-156.11127709 240.84791098 -156.11127709 240.84791098 -162.24609375 235.62109375 C-162.92865234 234.72583984 -162.92865234 234.72583984 -163.625 233.8125 C-164.09808594 233.21308594 -164.57117188 232.61367188 -165.05859375 231.99609375 C-168.17196759 227.52533201 -167.92489396 222.63602228 -167.1875 217.375 C-164.7248287 211.97471365 -161.59296865 209.27858721 -156.12253761 207.00922966 C-153.04843484 206.00165898 -150.16218121 206.00359257 -146.94213867 206.00610352 C-146.25492233 206.00233704 -145.56770599 205.99857056 -144.85966492 205.99468994 C-143.37943568 205.98829504 -141.89916532 205.98855194 -140.41893578 205.99487495 C-138.06720806 206.00405561 -135.71626587 205.99368208 -133.36457825 205.97825623 C-126.68276064 205.93835513 -120.00100884 205.93694639 -113.3190918 205.93920898 C-109.21948334 205.93926039 -105.12029913 205.91994497 -101.02080727 205.88987541 C-98.71973201 205.87914758 -96.41950092 205.89112214 -94.11845398 205.90370178 C-85.78416785 205.88348169 -77.32997727 205.69519063 -70.62345886 200.06105042 C-63.51005284 191.59062031 -62.33178073 177.10164303 -60.04296875 166.59375 C-59.75373245 165.28056077 -59.46415036 163.96744766 -59.17425537 162.65440369 C-58.39730406 159.12939789 -57.62608236 155.60316219 -56.8561821 152.07661057 C-56.20619298 149.10263687 -55.552829 146.12940815 -54.89962864 143.15613842 C-49.11614647 116.82299056 -43.45548521 90.46330532 -37.84120846 64.09361458 C-36.84244155 59.40474956 -35.83648289 54.7174672 -34.82763672 50.03076172 C-33.72932491 44.92732852 -32.65600357 39.81948054 -31.59814453 34.70751953 C-31.08797426 32.29581185 -30.57741377 29.88418667 -30.06640625 27.47265625 C-29.84879135 26.39326279 -29.63117645 25.31386932 -29.40696716 24.20176697 C-27.38966314 14.81117328 -24.51820559 6.56897981 -16.8359375 0.43359375 C-11.61400012 -2.91983049 -5.43252701 -2.47961934 0 0 Z " fill="#F5F6F7" transform="translate(472.1875,297.625)"/>
<path d="M0 0 C4.35913752 0.00665141 8.71826487 0.00161267 13.0774039 -0.0018822 C21.5892849 -0.0068933 30.10112667 -0.00132254 38.61300278 0.00796811 C48.53769949 0.01840761 58.46238796 0.01828048 68.38708913 0.01779553 C86.09576368 0.01729625 103.80442009 0.02642201 121.51308811 0.04097974 C138.67878157 0.05508369 155.84445908 0.06214958 173.01015842 0.06148756 C174.59820638 0.06142762 174.59820638 0.06142762 176.21833611 0.06136648 C177.80370428 0.06130594 177.80370428 0.06130594 179.42110008 0.06124419 C199.00148539 0.06055392 218.58186396 0.06644434 238.16224708 0.07539741 C245.07424906 0.07840872 251.9862498 0.07947634 258.89825237 0.07992971 C267.3186655 0.08061272 275.73906726 0.08509005 284.15947557 0.09426252 C288.45239031 0.09886936 292.74529052 0.10193009 297.03820789 0.10066831 C300.97136827 0.09956833 304.90449659 0.10312169 308.83765029 0.11031684 C310.25649606 0.11212061 311.67534515 0.11226984 313.09419102 0.11054955 C320.68518985 0.1023682 328.13989369 0.28209956 335.67495334 1.24679029 C335.67495334 1.57679029 335.67495334 1.90679029 335.67495334 2.24679029 C334.9950377 2.25010044 334.31512207 2.25341058 333.61460292 2.25682104 C317.06388798 2.33807318 300.51327246 2.43017289 283.96268642 2.53431737 C275.95891719 2.58441999 267.95515808 2.63086317 259.95132053 2.66866529 C252.97444733 2.70162637 245.99765321 2.7414803 239.02086735 2.78958035 C235.32737893 2.81480446 231.6339427 2.83659775 227.94039142 2.85013425 C223.81517554 2.865382 219.69021061 2.89601953 215.56509006 2.92794263 C213.73197521 2.93118291 213.73197521 2.93118291 211.86182773 2.93448865 C210.73449726 2.94565214 209.60716678 2.95681562 208.44567478 2.96831739 C207.4704178 2.97384815 206.49516082 2.97937891 205.4903506 2.98507726 C202.32064962 3.27972557 199.65000366 4.13920958 196.67495334 5.24679029 C196.34495334 4.58679029 196.01495334 3.92679029 195.67495334 3.24679029 C194.55935881 3.24771208 193.44376428 3.24863388 192.29436386 3.2495836 C165.17975454 3.27175935 138.0651464 3.28820473 110.95052993 3.29860246 C97.83824136 3.30376406 84.72595878 3.31080419 71.61367404 3.32222974 C60.18823936 3.33218072 48.762809 3.33864471 37.3373701 3.34087878 C31.2847942 3.34218518 25.2322307 3.34526661 19.17965877 3.35252035 C13.48756442 3.35928706 7.79548761 3.36140591 2.10338962 3.35989797 C0.00993683 3.360174 -2.08351651 3.36217527 -4.17696583 3.36599576 C-7.02670704 3.37094314 -9.87638129 3.36978466 -12.72612393 3.36704481 C-13.56172118 3.36995765 -14.39731844 3.37287049 -15.25823683 3.3758716 C-18.54032558 3.36729429 -21.1888589 3.29218621 -24.32504666 2.24679029 C-24.65504666 3.23679029 -24.98504666 4.22679029 -25.32504666 5.24679029 C-25.98504666 5.24679029 -26.64504666 5.24679029 -27.32504666 5.24679029 C-27.32504666 4.58679029 -27.32504666 3.92679029 -27.32504666 3.24679029 C-27.98504666 3.24679029 -28.64504666 3.24679029 -29.32504666 3.24679029 C-29.32504666 3.90679029 -29.32504666 4.56679029 -29.32504666 5.24679029 C-30.31504666 5.57679029 -31.30504666 5.90679029 -32.32504666 6.24679029 C-33.31504666 5.58679029 -34.30504666 4.92679029 -35.32504666 4.24679029 C-43.33046087 3.97298948 -51.65256667 5.61860325 -59.57504666 6.68429029 C-60.51654568 6.8063484 -61.45804471 6.9284065 -62.428074 7.05416334 C-63.74605984 7.24039258 -63.74605984 7.24039258 -65.09067166 7.43038404 C-65.8824783 7.53922925 -66.67428494 7.64807447 -67.49008572 7.76021802 C-68.39839139 8.0010713 -68.39839139 8.0010713 -69.32504666 8.24679029 C-69.65504666 8.90679029 -69.98504666 9.56679029 -70.32504666 10.24679029 C-70.32504666 9.58679029 -70.32504666 8.92679029 -70.32504666 8.24679029 C-72.5469449 10.46868853 -73.25103558 12.33161737 -74.32504666 15.24679029 C-74.92317166 14.73116529 -75.52129666 14.21554029 -76.13754666 13.68429029 C-76.85942166 13.20991529 -77.58129666 12.73554029 -78.32504666 12.24679029 C-79.31504666 12.57679029 -80.30504666 12.90679029 -81.32504666 13.24679029 C-82.69755729 13.54995529 -84.07289921 13.84043758 -85.45004666 14.12179029 C-90.20349446 15.15209425 -94.74492644 16.62263418 -99.32504666 18.24679029 C-98.33504666 19.73179029 -98.33504666 19.73179029 -97.32504666 21.24679029 C-97.98504666 21.57679029 -98.64504666 21.90679029 -99.32504666 22.24679029 C-99.32504666 21.58679029 -99.32504666 20.92679029 -99.32504666 20.24679029 C-99.94379666 20.43241529 -100.56254666 20.61804029 -101.20004666 20.80929029 C-103.32504666 21.24679029 -103.32504666 21.24679029 -105.32504666 20.24679029 C-105.32504666 20.90679029 -105.32504666 21.56679029 -105.32504666 22.24679029 C-110.30734442 24.16305866 -115.05189333 24.80150179 -120.32504666 25.24679029 C-120.32504666 26.56679029 -120.32504666 27.88679029 -120.32504666 29.24679029 C-120.98504666 29.90679029 -121.64504666 30.56679029 -122.32504666 31.24679029 C-123.31504666 31.24679029 -124.30504666 31.24679029 -125.32504666 31.24679029 C-125.65504666 32.23679029 -125.98504666 33.22679029 -126.32504666 34.24679029 C-127.81004666 33.75179029 -127.81004666 33.75179029 -129.32504666 33.24679029 C-130.31504666 33.74179029 -130.31504666 33.74179029 -131.32504666 34.24679029 C-131.97717958 36.27142284 -131.97717958 36.27142284 -132.32504666 38.24679029 C-133.06754666 38.37054029 -133.81004666 38.49429029 -134.57504666 38.62179029 C-137.20298301 39.21904855 -139.07770652 39.77439503 -141.32504666 41.24679029 C-141.63442166 41.90679029 -141.94379666 42.56679029 -142.26254666 43.24679029 C-143.32504666 45.24679029 -143.32504666 45.24679029 -145.82504666 46.49679029 C-148.32504666 47.24679029 -148.32504666 47.24679029 -150.32504666 47.24679029 C-150.65504666 48.89679029 -150.98504666 50.54679029 -151.32504666 52.24679029 C-152.97504666 51.58679029 -154.62504666 50.92679029 -156.32504666 50.24679029 C-156.57641385 50.83589185 -156.82778103 51.42499341 -157.08676541 52.03194654 C-158.47960066 54.52323231 -159.94590385 55.86979443 -162.13754666 57.68429029 C-168.81165965 63.09647772 -168.81165965 63.09647772 -173.32504666 70.24679029 C-173.98504666 70.24679029 -174.64504666 70.24679029 -175.32504666 70.24679029 C-175.65504666 72.22679029 -175.98504666 74.20679029 -176.32504666 76.24679029 C-177.64504666 75.91679029 -178.96504666 75.58679029 -180.32504666 75.24679029 C-180.32504666 76.23679029 -180.32504666 77.22679029 -180.32504666 78.24679029 C-181.63634588 79.60179948 -182.97196353 80.93350372 -184.32504666 82.24679029 C-184.62797635 82.88745435 -184.93090603 83.52811841 -185.24301541 84.18819654 C-186.46222448 86.50777482 -187.71875713 87.62933965 -189.76254666 89.24679029 C-194.06675416 92.80981684 -196.41241344 95.95026754 -198.32504666 101.24679029 C-198.98504666 101.24679029 -199.64504666 101.24679029 -200.32504666 101.24679029 C-200.26317166 102.15429029 -200.20129666 103.06179029 -200.13754666 103.99679029 C-200.34191522 107.53917861 -200.85158362 108.77332725 -203.32504666 111.24679029 C-203.98504666 111.24679029 -204.64504666 111.24679029 -205.32504666 111.24679029 C-205.41592556 112.35087232 -205.41592556 112.35087232 -205.50864041 113.47725904 C-205.59242947 114.45307935 -205.67621853 115.42889966 -205.76254666 116.43429029 C-205.8437576 117.39721998 -205.92496853 118.36014966 -206.00864041 119.35225904 C-206.30170817 122.03328631 -206.7520842 124.61308889 -207.32504666 127.24679029 C-207.82004666 126.25679029 -207.82004666 126.25679029 -208.32504666 125.24679029 C-208.65504666 125.90679029 -208.98504666 126.56679029 -209.32504666 127.24679029 C-210.64504666 127.24679029 -211.96504666 127.24679029 -213.32504666 127.24679029 C-213.54160916 128.14397779 -213.54160916 128.14397779 -213.76254666 129.05929029 C-214.21229056 130.80829433 -214.75397007 132.53356052 -215.32504666 134.24679029 C-214.66504666 134.57679029 -214.00504666 134.90679029 -213.32504666 135.24679029 C-213.94379666 135.80366529 -214.56254666 136.36054029 -215.20004666 136.93429029 C-218.95675624 141.02247425 -219.8721557 145.98006057 -221.32504666 151.24679029 C-221.85098416 152.94835279 -221.85098416 152.94835279 -222.38754666 154.68429029 C-223.10675317 157.41727502 -223.53907921 159.77988736 -223.82504666 162.55929029 C-224.32504666 166.24679029 -224.32504666 166.24679029 -226.32504666 168.24679029 C-228.89667863 176.84760725 -229.72934911 185.44646372 -230.11410916 194.36007154 C-230.32504666 197.24679029 -230.32504666 197.24679029 -231.32504666 198.24679029 C-231.69557005 203.42414706 -231.69557005 203.42414706 -230.32504666 208.24679029 C-231.64504666 208.57679029 -232.96504666 208.90679029 -234.32504666 209.24679029 C-234.32504666 222.11679029 -234.32504666 234.98679029 -234.32504666 248.24679029 C-234.65504666 248.24679029 -234.98504666 248.24679029 -235.32504666 248.24679029 C-235.37532947 242.47084221 -235.41117312 236.69502772 -235.43490994 230.91890943 C-235.44482868 228.96315763 -235.45836784 227.00742007 -235.47592556 225.05172193 C-235.62575098 207.90552491 -234.76868262 191.16526236 -231.07504666 174.37179029 C-230.74971951 172.8678169 -230.74971951 172.8678169 -230.4178201 171.33346021 C-222.49911327 135.59508598 -207.61682545 101.97061856 -183.32504666 74.24679029 C-182.6328201 73.44499341 -181.94059353 72.64319654 -181.22739041 71.81710279 C-149.60993946 35.89600607 -108.80265239 13.35117201 -61.88754666 4.05929029 C-60.72811551 3.82665479 -60.72811551 3.82665479 -59.5452615 3.58931959 C-39.78640446 -0.09314057 -20.012431 -0.04074901 0 0 Z " fill="#247C81" transform="translate(365.32504665851593,256.75320971012115)"/>
<path d="M0 0 C45.43686515 -0.02289087 90.87372969 -0.0405107 136.31059947 -0.05106533 C141.67532804 -0.05231603 147.0400566 -0.05361035 152.40478516 -0.05493164 C154.00681063 -0.05532511 154.00681063 -0.05532511 155.64120026 -0.05572652 C172.93240464 -0.06007735 190.2236057 -0.06796168 207.5148081 -0.0771528 C225.2583109 -0.08650564 243.00181195 -0.09205907 260.7453171 -0.09408849 C271.69321655 -0.09546032 282.6411066 -0.09979258 293.58900316 -0.10791647 C301.09726031 -0.11320403 308.60551261 -0.11479971 316.11377148 -0.11350138 C320.44503669 -0.11286115 324.77628547 -0.11383991 329.10754776 -0.11920547 C333.07662009 -0.12408636 337.04566502 -0.12430794 341.01473863 -0.12089889 C342.44693993 -0.12047781 343.87914296 -0.12173386 345.31134085 -0.12488318 C352.93893209 -0.14067393 360.42889398 0.02593304 368 1 C368 1.33 368 1.66 368 2 C367.32008436 2.00331015 366.64016872 2.00662029 365.93964958 2.01003075 C349.38893464 2.09128289 332.83831912 2.1833826 316.28773308 2.28752708 C308.28396385 2.3376297 300.28020474 2.38407288 292.27636719 2.421875 C285.29949398 2.45483608 278.32269987 2.49469001 271.34591401 2.54279006 C267.65242559 2.56801417 263.95898936 2.58980746 260.26543808 2.60334396 C256.1402222 2.61859171 252.01525726 2.64922924 247.89013672 2.68115234 C246.05702187 2.68439262 246.05702187 2.68439262 244.18687439 2.68769836 C243.05954391 2.69886185 241.93221344 2.71002533 240.77072144 2.7215271 C239.79546446 2.72705786 238.82020748 2.73258862 237.81539726 2.73828697 C234.64569628 3.03293528 231.97505032 3.89241929 229 5 C228.67 4.34 228.34 3.68 228 3 C226.88440547 3.00092179 225.76881094 3.00184359 224.61941051 3.00279331 C197.5048012 3.02496906 170.39019305 3.04141444 143.27557659 3.05181217 C130.16328802 3.05697377 117.05100543 3.0640139 103.9387207 3.07543945 C92.51328601 3.08539043 81.08785566 3.09185442 69.66241676 3.09408849 C63.60984086 3.09539489 57.55727736 3.09847632 51.50470543 3.10573006 C45.81261108 3.11249677 40.12053427 3.11461562 34.42843628 3.11310768 C32.33498349 3.11338371 30.24153014 3.11538498 28.14808083 3.11920547 C25.29833961 3.12415285 22.44866537 3.12299437 19.59892273 3.12025452 C18.76332547 3.12316736 17.92772822 3.1260802 17.06680983 3.12908131 C13.78472108 3.120504 11.13618776 3.04539592 8 2 C7.67 2.99 7.34 3.98 7 5 C6.34 5 5.68 5 5 5 C5 4.34 5 3.68 5 3 C4.360625 2.87625 3.72125 2.7525 3.0625 2.625 C2.381875 2.41875 1.70125 2.2125 1 2 C0.67 1.34 0.34 0.68 0 0 Z " fill="#217176" transform="translate(333,257)"/>
<path d="M0 0 C0 0.33 0 0.66 0 1 C-10.58504525 4.69245765 -22.21595098 4.14702043 -33.29414368 4.08229065 C-34.56706888 4.07906152 -35.83999408 4.07583239 -37.15149277 4.07250541 C-40.64523531 4.063505 -44.13892316 4.04808741 -47.6326369 4.03152263 C-51.41498079 4.01474838 -55.19734274 4.00406645 -58.97970581 3.99261475 C-65.51982974 3.9719936 -72.0599305 3.94758082 -78.6000309 3.92053413 C-88.05571829 3.88143557 -97.51141924 3.84814636 -106.96713331 3.81623887 C-122.31135701 3.76430497 -137.65555988 3.70772463 -152.99975586 3.64819336 C-167.89818513 3.59040155 -182.79661995 3.53481602 -197.69506836 3.48217773 C-198.61463459 3.47892802 -199.53420082 3.4756783 -200.48163269 3.4723301 C-205.09519233 3.45603947 -209.70875213 3.439792 -214.322312 3.42356598 C-252.54823371 3.28906862 -290.77412451 3.14701832 -329 3 C-329 2.67 -329 2.34 -329 2 C-301.5841178 1.86724341 -274.16822535 1.73680038 -246.75232029 1.60884857 C-234.01220254 1.54934007 -221.27208869 1.48916716 -208.53198242 1.42724609 C-194.99128023 1.36149652 -181.45057018 1.29761441 -167.9098506 1.23554993 C-165.47108918 1.22434324 -163.0323281 1.21306182 -160.59356737 1.20170593 C-134.84079083 1.08184547 -109.0885447 0.97836444 -83.33544922 1.00390625 C-82.38018919 1.00472356 -81.42492917 1.00554087 -80.44072187 1.00638294 C-71.59494884 1.01415241 -62.74922901 1.02564677 -53.90349859 1.05482912 C-33.24136064 1.16460012 -33.24136064 1.16460012 -12.60694885 0.21765137 C-8.39771591 -0.03634317 -4.21508487 -0.04320666 0 0 Z " fill="#3CAFBA" transform="translate(692,737)"/>
<path d="M0 0 C1.30248412 3.74117778 0.77935768 6.81700627 0.1875 10.6875 C-0.00328125 11.94046875 -0.1940625 13.1934375 -0.390625 14.484375 C-0.85790403 17.18021558 -1.39516889 19.7883977 -2.0625 22.4375 C-3.37724663 27.8505584 -3.48450003 33.39542917 -3.75390625 38.9375 C-4 42 -4 42 -5 43 C-5.37052339 48.17735677 -5.37052339 48.17735677 -4 53 C-5.98 53.495 -5.98 53.495 -8 54 C-8 66.87 -8 79.74 -8 93 C-8.33 93 -8.66 93 -9 93 C-9.05028281 87.22405192 -9.08612646 81.44823743 -9.10986328 75.67211914 C-9.11978202 73.71636734 -9.13332119 71.76062978 -9.15087891 69.80493164 C-9.30384191 52.29966517 -8.3193849 35.37936259 -4.5 18.25 C-4.28730469 17.2496875 -4.07460937 16.249375 -3.85546875 15.21875 C-2.74826344 10.08349103 -1.51725309 5.02941302 0 0 Z " fill="#216F72" transform="translate(139,412)"/>
<path d="M0 0 C0.33 0 0.66 0 1 0 C1 1.65 1 3.3 1 5 C1.66 5 2.32 5 3 5 C3 23.15 3 41.3 3 60 C2.34 60 1.68 60 1 60 C0.67 61.32 0.34 62.64 0 64 C-0.19658808 62.58456585 -0.38187546 61.16755969 -0.5625 59.75 C-0.66691406 58.96109375 -0.77132812 58.1721875 -0.87890625 57.359375 C-1 55 -1 55 -0.51565552 53.09872437 C0.3553773 49.55360996 0.14184644 45.92012227 0.1328125 42.2890625 C0.13376923 41.44330658 0.13472595 40.59755066 0.13571167 39.72616577 C0.13639128 37.93918788 0.13455228 36.1522075 0.13037109 34.36523438 C0.12503307 31.64187004 0.13031664 28.91867163 0.13671875 26.1953125 C0.13605767 24.4557288 0.13477589 22.71614521 0.1328125 20.9765625 C0.13483673 20.16700104 0.13686096 19.35743958 0.13894653 18.52334595 C0.12128498 14.22335025 -0.25582172 10.2467461 -1 6 C-0.5625 2.625 -0.5625 2.625 0 0 Z " fill="#2C9CA7" transform="translate(893,454)"/>
<path d="M0 0 C0.33 0.66 0.66 1.32 1 2 C1.66 2 2.32 2 3 2 C3.33 2.66 3.66 3.32 4 4 C5.65 4 7.3 4 9 4 C9.12375 5.1446875 9.12375 5.1446875 9.25 6.3125 C10.15269355 9.54715191 11.13593461 10.35099265 14 12 C14.66 12 15.32 12 16 12 C17.125 15.75 17.125 15.75 16 18 C15.34 18 14.68 18 14 18 C14.495 19.0828125 14.495 19.0828125 15 20.1875 C16.00603529 23.01697427 16.16977402 25.02895466 16 28 C14.29918522 24.7761829 13.03871849 21.46901253 11.75 18.0625 C9.09894306 11.6609772 6.67784735 9.03249459 0.625 5.6875 C-4.78726788 4.27000127 -9.02854124 4.160883 -13.875 6.9375 C-15.421875 7.9584375 -15.421875 7.9584375 -17 9 C-17.99 9.495 -17.99 9.495 -19 10 C-19.33 9.01 -19.66 8.02 -20 7 C-16.66619395 3.25604115 -12.83993063 1.98821735 -8 1 C-5.18594912 1.04179283 -2.77736796 1.44452641 0 2 C0 1.34 0 0.68 0 0 Z " fill="#278084" transform="translate(470,292)"/>
<path d="M0 0 C1.89162117 0.03014442 1.89162117 0.03014442 3.82145691 0.06089783 C5.19778664 0.08809413 6.57411411 0.11540498 7.95043945 0.14282227 C9.35861951 0.16712854 10.76680763 0.19097185 12.17500305 0.21437073 C15.87896923 0.27716127 19.58279246 0.34624207 23.28662109 0.41662598 C27.06707252 0.48735491 30.8476252 0.55214457 34.62817383 0.61743164 C42.04430145 0.74637913 49.46028809 0.88197091 56.8762207 1.02172852 C54.12755105 3.77039817 52.53262753 3.29597863 48.68237305 3.34057617 C47.38117523 3.36044586 46.07997742 3.38031555 44.73934937 3.40078735 C43.31362071 3.41266471 41.88789025 3.42432752 40.4621582 3.43579102 C39.00768932 3.45449525 37.55323137 3.4740681 36.0987854 3.49447632 C32.26837602 3.54588245 28.43793142 3.58546251 24.60736084 3.62261963 C20.69949574 3.66260633 16.79177818 3.71372292 12.8840332 3.76391602 C5.21486347 3.86077561 -2.45437743 3.94514798 -10.1237793 4.02172852 C-9.7937793 3.03172852 -9.4637793 2.04172852 -9.1237793 1.02172852 C-5.81834814 -0.08008187 -3.47781972 -0.0624758 0 0 Z " fill="#35A0A8" transform="translate(657.123779296875,537.978271484375)"/>
<path d="M0 0 C0.66 0 1.32 0 2 0 C0.87960132 9.24328911 -6.26440274 17.03079281 -13 23 C-14.32 23 -15.64 23 -17 23 C-17 23.66 -17 24.32 -17 25 C-17.99 24.67 -18.98 24.34 -20 24 C-18.71034824 22.62437146 -17.37310707 21.29233607 -16 20 C-15.34 20 -14.68 20 -14 20 C-13.67 19.01 -13.34 18.02 -13 17 C-12.34 16.67 -11.68 16.34 -11 16 C-11.99 15.34 -12.98 14.68 -14 14 C-14 13.01 -14 12.02 -14 11 C-12.02 11 -10.04 11 -8 11 C-7.67 8.69 -7.34 6.38 -7 4 C-5 3.33333333 -3 2.66666667 -1 2 C-0.34 2.33 0.32 2.66 1 3 C0.67 2.01 0.34 1.02 0 0 Z " fill="#2CA7B3" transform="translate(840,646)"/>
<path d="M0 0 C3.80785653 3.80785653 4.31115393 10.03375168 5.6237793 15.17578125 C6.18435391 17.36272629 6.76231097 19.54456287 7.34179688 21.7265625 C7.70158756 23.11691189 8.06034582 24.50752894 8.41796875 25.8984375 C8.74563232 27.16349121 9.0732959 28.42854492 9.41088867 29.73193359 C10 33 10 33 9 37 C7.02 30.07 5.04 23.14 3 16 C2.67 17.65 2.34 19.3 2 21 C1.67 21.99 1.34 22.98 1 24 C-0.9375 23.6875 -0.9375 23.6875 -3 23 C-4.08622755 19.74131735 -3.91122669 18.60795726 -3.22265625 15.33203125 C-3.03896484 14.43935547 -2.85527344 13.54667969 -2.66601562 12.62695312 C-2.36727539 11.23379883 -2.36727539 11.23379883 -2.0625 9.8125 C-1.86720703 8.87212891 -1.67191406 7.93175781 -1.47070312 6.96289062 C-0.98734119 4.64039546 -0.4968617 2.31963794 0 0 Z " fill="#267A7F" transform="translate(465,366)"/>
<path d="M0 0 C0.33 0 0.66 0 1 0 C2.64754142 9.43591905 0.89969462 17.74837986 -1 27 C-1.66 27 -2.32 27 -3 27 C-3.33 29.64 -3.66 32.28 -4 35 C-4.33 35 -4.66 35 -5 35 C-5.07471511 30.89066873 -5.04281554 26.94993917 -4.5 22.875 C-3.71776803 16.60612689 -3.91927277 10.30569374 -4 4 C-3.01 4 -2.02 4 -1 4 C-0.67 2.68 -0.34 1.36 0 0 Z " fill="#2DA1AF" transform="translate(892,519)"/>
<path d="M0 0 C0.495 0.99 0.495 0.99 1 2 C-2.72227538 4.48151692 -4.66890267 4.2678381 -9.11767578 4.30297852 C-10.19856979 4.31563751 -10.19856979 4.31563751 -11.30130005 4.32855225 C-13.6826442 4.35433938 -16.06386449 4.36647062 -18.4453125 4.37890625 C-20.0977375 4.39507692 -21.75015291 4.41225646 -23.40255737 4.43040466 C-27.75209128 4.47610715 -32.10163784 4.51090851 -36.45129395 4.54260254 C-43.42112439 4.59447134 -50.39081443 4.65945757 -57.36046982 4.73081779 C-59.80069475 4.75372211 -62.24090162 4.76994535 -64.68118286 4.78553772 C-66.16782838 4.79893852 -67.654472 4.81255281 -69.14111328 4.82641602 C-70.44444611 4.83592789 -71.74777893 4.84543976 -73.09060669 4.85523987 C-75.89211159 4.66841369 -75.89211159 4.66841369 -77 6 C-78.99958364 6.04080783 -81.00045254 6.04254356 -83 6 C-79.45364446 2.45364446 -75.93224119 2.86271725 -71.14526367 2.82641602 C-70.45220627 2.819729 -69.75914886 2.81304199 -69.04508972 2.80615234 C-67.54077594 2.7921115 -66.03644096 2.78021437 -64.53209496 2.77020454 C-62.14837858 2.7537712 -59.7648184 2.73053126 -57.38117981 2.70530701 C-50.60405286 2.63460402 -43.82686159 2.57449622 -37.04956055 2.52319336 C-32.90278289 2.49132551 -28.75618442 2.45002882 -24.60955238 2.40299797 C-23.03199817 2.38702291 -21.45440271 2.37468067 -19.876791 2.36609077 C-17.6653166 2.35387794 -15.45425998 2.3297032 -13.24291992 2.30297852 C-11.98621994 2.29267105 -10.72951996 2.28236359 -9.43473816 2.27174377 C-5.98331259 1.99867975 -3.21965167 1.24000398 0 0 Z " fill="#E1F9FB" transform="translate(396,501)"/>
<path d="M0 0 C0.66 0 1.32 0 2 0 C1.33015012 7.86013724 -0.30233416 15.38066256 -2.0625 23.0625 C-2.48499023 24.93325195 -2.48499023 24.93325195 -2.91601562 26.84179688 C-3.60632682 29.89554639 -4.30108982 32.9482092 -5 36 C-5.33 36 -5.66 36 -6 36 C-5.67 30.72 -5.34 25.44 -5 20 C-5.66 19.67 -6.32 19.34 -7 19 C-7 16.33333333 -7 13.66666667 -7 11 C-5.35 10.67 -3.7 10.34 -2 10 C-1.34 6.7 -0.68 3.4 0 0 Z " fill="#1E8F9C" transform="translate(424,401)"/>
<path d="M0 0 C0.66 0 1.32 0 2 0 C2.12117188 0.63808594 2.24234375 1.27617187 2.3671875 1.93359375 C2.53476562 2.75988281 2.70234375 3.58617187 2.875 4.4375 C3.03742188 5.26121094 3.19984375 6.08492188 3.3671875 6.93359375 C3.57601563 7.61550781 3.78484375 8.29742187 4 9 C4.66 9.33 5.32 9.66 6 10 C5.67 12.97 5.34 15.94 5 19 C5.66 19 6.32 19 7 19 C8.69742041 22.84077329 9.58344979 26.48286658 10.25 30.625 C10.44078125 31.75164062 10.6315625 32.87828125 10.828125 34.0390625 C11 37 11 37 9 40 C7.71221521 34.9478041 6.43064491 29.89408779 5.15478516 24.83886719 C4.7199639 23.11968577 4.28345341 21.40093067 3.84521484 19.68261719 C3.21526653 17.21139138 2.59142711 14.73869155 1.96875 12.265625 C1.77188599 11.49881409 1.57502197 10.73200317 1.37219238 9.94195557 C0.5086877 6.48938468 0 3.58348969 0 0 Z " fill="#277A7D" transform="translate(486,320)"/>
<path d="M0 0 C1.66434188 1.42657875 3.32798477 2.85386618 4.98828125 4.28515625 C6.28569876 5.3911102 7.59491307 6.4834426 8.91796875 7.55859375 C12.34063519 10.3682453 15.23996741 12.8199226 17 17 C16.6875 19.3125 16.6875 19.3125 16 21 C14.0625 20.1875 14.0625 20.1875 12 19 C11.67 18.01 11.34 17.02 11 16 C11.33 15.67 11.66 15.34 12 15 C11.07767578 14.56300781 11.07767578 14.56300781 10.13671875 14.1171875 C6.13157575 12.08587096 3.48602287 10.72167032 0.9375 6.9375 C0 4 0 4 0 0 Z " fill="#2A9FAB" transform="translate(827,317)"/>
<path d="M0 0 C6.66158621 0.37446786 13.24609046 0.77621853 19.8125 2 C27.48211306 3.3944751 35.22652072 3.65000923 43 4 C39.87605672 7.12394328 36.28672845 6.84068196 32 7 C28.78654027 6.85037105 25.62539822 6.48492931 22.4375 6.0625 C21.61958984 5.96259766 20.80167969 5.86269531 19.95898438 5.75976562 C17.97150746 5.51568951 15.98556466 5.25917295 14 5 C14 4.34 14 3.68 14 3 C12.98679687 2.92652344 12.98679687 2.92652344 11.953125 2.8515625 C11.06109375 2.77679687 10.1690625 2.70203125 9.25 2.625 C8.36828125 2.55539062 7.4865625 2.48578125 6.578125 2.4140625 C4.00933618 2.00149945 2.24158985 1.28839043 0 0 Z " fill="#389CA4" transform="translate(322,734)"/>
<path d="M0 0 C1.32 0.33 2.64 0.66 4 1 C3.9175 2.258125 3.835 3.51625 3.75 4.8125 C3.74228586 9.74955088 5.11617411 13.54566598 6.91015625 18.09765625 C9.575532 25.19577161 11.51873005 32.39195933 11 40 C8.77285621 36.65928431 7.86329285 33.44994378 6.8359375 29.62890625 C6.63900299 28.9101683 6.44206848 28.19143036 6.23916626 27.45091248 C5.82472193 25.93276942 5.41303151 24.41387224 5.00390625 22.89428711 C4.37769039 20.57247512 3.74027322 18.25394869 3.1015625 15.93554688 C2.69984408 14.45851723 2.29878047 12.9813093 1.8984375 11.50390625 C1.7078476 10.81212784 1.51725769 10.12034943 1.32089233 9.40760803 C0.43959029 6.10674846 0 3.45121477 0 0 Z " fill="#287C80" transform="translate(506,399)"/>
<path d="M0 0 C0.33 0 0.66 0 1 0 C1.144375 0.763125 1.28875 1.52625 1.4375 2.3125 C1.9632594 5.08172908 1.9632594 5.08172908 3 8 C3.66 8.33 4.32 8.66 5 9 C4.98839844 10.19238281 4.97679687 11.38476562 4.96484375 12.61328125 C4.95546408 14.17968594 4.94636407 15.74609231 4.9375 17.3125 C4.92912109 18.09818359 4.92074219 18.88386719 4.91210938 19.69335938 C4.90888672 20.45068359 4.90566406 21.20800781 4.90234375 21.98828125 C4.89710693 22.68477783 4.89187012 23.38127441 4.88647461 24.09887695 C4.93104009 26.22497968 4.93104009 26.22497968 6 29 C5.5625 31.6875 5.5625 31.6875 5 34 C3.39115643 31.09719482 2.61970871 28.61082658 2.1484375 25.33203125 C2.01953125 24.43806641 1.890625 23.54410156 1.7578125 22.62304688 C1.56832031 21.23182617 1.56832031 21.23182617 1.375 19.8125 C1.2409375 18.90435547 1.106875 17.99621094 0.96875 17.06054688 C0.16276317 11.31583462 -0.13033222 5.79978396 0 0 Z " fill="#25747B" transform="translate(131,509)"/>
<path d="M0 0 C2.30759189 3.46138784 3.17803551 6.8378015 4.19921875 10.80859375 C4.39852493 11.57172379 4.59783112 12.33485382 4.80317688 13.12110901 C5.22209573 14.73337242 5.63797445 16.34642839 6.05102539 17.96020508 C6.68498004 20.42769176 7.33509503 22.89054074 7.98632812 25.35351562 C8.39161839 26.92161858 8.79594763 28.48997031 9.19921875 30.05859375 C9.39496994 30.79411972 9.59072113 31.52964569 9.79240417 32.28746033 C11.38242105 38.60648415 11.38242105 38.60648415 10 42 C9.34 40.35 8.68 38.7 8 37 C7.67 37 7.34 37 7 37 C6.81824219 35.80503906 6.81824219 35.80503906 6.6328125 34.5859375 C5.77985218 29.19260376 4.83289269 24.15501068 3 19 C2.27648027 16.0117644 1.62864995 13.00949445 1 10 C0.67 10 0.34 10 0 10 C0 6.7 0 3.4 0 0 Z " fill="#2E7F83" transform="translate(475,404)"/>
<path d="M0 0 C5.75 -0.125 5.75 -0.125 8 1 C6.7790076 6.08746832 5.2946463 9.80681379 2 14 C1.01 14.33 0.02 14.66 -1 15 C-0.67 12.36 -0.34 9.72 0 7 C0.99 6.67 1.98 6.34 3 6 C2.34 5.01 1.68 4.02 1 3 C0.01 3.495 0.01 3.495 -1 4 C-0.67 2.68 -0.34 1.36 0 0 Z " fill="#2BADBA" transform="translate(850,624)"/>
<path d="M0 0 C1.16796875 1.48828125 1.16796875 1.48828125 2 4 C1.24187433 6.88907349 0.41090194 9.43537932 -0.6875 12.1875 C-0.95755859 12.92419922 -1.22761719 13.66089844 -1.50585938 14.41992188 C-2.23863988 16.32095387 -3.11130049 18.16666885 -4 20 C-4.99 20.33 -5.98 20.66 -7 21 C-7.29663458 15.26506477 -6.93440741 12.07878206 -4 7 C-3.31471955 5.34089996 -2.64108137 3.67667436 -2 2 C-1.34 2 -0.68 2 0 2 C0 1.34 0 0.68 0 0 Z " fill="#37969F" transform="translate(880,575)"/>
<path d="M0 0 C0 0.33 0 0.66 0 1 C-11.65181616 5.06458703 -23.92183274 4.007806 -36 3 C-36 2.34 -36 1.68 -36 1 C-31.68760598 0.8305153 -27.37507061 0.66492518 -23.0625 0.5 C-21.85013672 0.45230469 -20.63777344 0.40460937 -19.38867188 0.35546875 C-12.92002362 0.11004578 -6.47324726 -0.05586405 0 0 Z " fill="#36A6B1" transform="translate(692,737)"/>
<path d="M0 0 C0.33 0.66 0.66 1.32 1 2 C2.32 1.67 3.64 1.34 5 1 C3.53022381 4.76886744 1.61401409 6.24220738 -1.8125 8.3125 C-3.09060547 9.11107422 -3.09060547 9.11107422 -4.39453125 9.92578125 C-7.43260262 11.1783594 -8.9061482 10.94981806 -12 10 C-12 9.34 -12 8.68 -12 8 C-9.69723426 5.78252188 -8.47519908 5.03239994 -5.25 4.8125 C-4.13625 4.9053125 -4.13625 4.9053125 -3 5 C-3 4.34 -3 3.68 -3 3 C-1.5 1.375 -1.5 1.375 0 0 Z " fill="#2FA8B6" transform="translate(781,700)"/>
<path d="M0 0 C0.99 0.33 1.98 0.66 3 1 C2.67 2.65 2.34 4.3 2 6 C2.66 6 3.32 6 4 6 C4.33 6.33 4.66 6.66 5 7 C5.66 4.69 6.32 2.38 7 0 C7.66 0 8.32 0 9 0 C9.33266291 6.20970773 8.45029331 10.28264895 6 16 C3.1976397 13.61367638 2.30131113 11.51577292 1.3125 8 C1.06113281 7.13375 0.80976562 6.2675 0.55078125 5.375 C0 3 0 3 0 0 Z " fill="#328F96" transform="translate(572,619)"/>
<path d="M0 0 C0 0.66 0 1.32 0 2 C-1.33333333 3.33333333 -2.66666667 4.66666667 -4 6 C-4.433125 6.95519531 -4.433125 6.95519531 -4.875 7.9296875 C-6.24992037 10.45992291 -7.7878792 11.59139814 -10.125 13.25 C-10.84945312 13.77078125 -11.57390625 14.2915625 -12.3203125 14.828125 C-12.87460938 15.21484375 -13.42890625 15.6015625 -14 16 C-12.54473565 9.38516206 -10.0345893 5.11715533 -4.3125 1.125 C-2 0 -2 0 0 0 Z " fill="#25868A" transform="translate(185,333)"/>
<path d="M0 0 C0.33 0 0.66 0 1 0 C1.95971191 7.19783936 -1.33800119 11.97296029 -5 18 C-5.99 17.67 -6.98 17.34 -8 17 C-7.505 15.515 -7.505 15.515 -7 14 C-6.34 14 -5.68 14 -5 14 C-5.226875 13.278125 -5.45375 12.55625 -5.6875 11.8125 C-6.09257469 8.16682782 -5.10842358 6.93673284 -3 4 C-2.46375 3.236875 -1.9275 2.47375 -1.375 1.6875 C-0.92125 1.130625 -0.4675 0.57375 0 0 Z " fill="#2FA5B0" transform="translate(871,597)"/>
<path d="M0 0 C1.3479743 0.63654342 2.68596724 1.29605388 4 2 C3.34 2 2.68 2 2 2 C1.67 2.66 1.34 3.32 1 4 C-1.68359282 4.4312917 -4.29892103 4.7478993 -7 5 C-8.6669223 5.18521359 -10.33359861 5.3726568 -12 5.5625 C-13.33327236 5.7088897 -14.66658348 5.85492922 -16 6 C-14.69271688 3.38543377 -13.66439468 3.19196604 -11 2 C-9.845 1.443125 -8.69 0.88625 -7.5 0.3125 C-3.03664921 -1.36125654 -3.03664921 -1.36125654 0 0 Z " fill="#2EAFB9" transform="translate(720,729)"/>
<path d="M0 0 C0.33 0 0.66 0 1 0 C1.33 16.17 1.66 32.34 2 49 C1.67 49 1.34 49 1 49 C-1.73476148 39.00037595 -0.99846542 29.1286594 -0.625 18.875 C-0.56665594 17.04169986 -0.5093552 15.2083662 -0.453125 13.375 C-0.31412006 8.91618894 -0.16096642 4.45807005 0 0 Z " fill="#379398" transform="translate(131,466)"/>
<path d="M0 0 C0.33 0 0.66 0 1 0 C2.46627319 10.2044688 2.46627319 10.2044688 0 15 C-0.2475 16.2375 -0.2475 16.2375 -0.5 17.5 C-1.03457234 20.17286168 -1.92838416 22.49956304 -3 25 C-3.66 25 -4.32 25 -5 25 C-3.35 16.75 -1.7 8.5 0 0 Z " fill="#E2F5F5" transform="translate(426,401)"/>
<path d="M0 0 C4.05473781 6.81507854 0.75346259 15.75235465 -1 23 C-1.33 23 -1.66 23 -2 23 C-1.98839844 21.86820312 -1.97679687 20.73640625 -1.96484375 19.5703125 C-1.95546546 18.08854331 -1.9463653 16.60677235 -1.9375 15.125 C-1.92912109 14.37863281 -1.92074219 13.63226563 -1.91210938 12.86328125 C-1.79311916 8.80154422 -1.79311916 8.80154422 -3 5 C-1.5625 2.375 -1.5625 2.375 0 0 Z " fill="#258087" transform="translate(436,340)"/>
<path d="M0 0 C0.66 0.66 1.32 1.32 2 2 C1.34 2.66 0.68 3.32 0 4 C-0.309375 4.825 -0.61875 5.65 -0.9375 6.5 C-2 9 -2 9 -5 11 C-5.99 10.67 -6.98 10.34 -8 10 C-8 9.34 -8 8.68 -8 8 C-7.34 8 -6.68 8 -6 8 C-6.66 7.34 -7.32 6.68 -8 6 C-7.625 3.875 -7.625 3.875 -7 2 C-6.21625 1.855625 -5.4325 1.71125 -4.625 1.5625 C-2.03578982 1.12201075 -2.03578982 1.12201075 0 0 Z " fill="#2DACB9" transform="translate(818,671)"/>
<path d="M0 0 C4.34712371 1.49156389 6.07997807 4.73695572 8.3125 8.5 C8.8703418 9.39138672 8.8703418 9.39138672 9.43945312 10.30078125 C10.36406331 11.82630197 11.19054693 13.4103764 12 15 C11 17 11 17 9 18 C8.71125 17.195625 8.4225 16.39125 8.125 15.5625 C7.26737432 12.8673532 7.26737432 12.8673532 5 12 C3.94647157 9.69034152 2.94280904 7.3570226 2 5 C1.01 5 0.02 5 -1 5 C-0.67 3.35 -0.34 1.7 0 0 Z " fill="#2F949D" transform="translate(857,353)"/>
<path d="M0 0 C0.33 0.66 0.66 1.32 1 2 C1.66 2 2.32 2 3 2 C4.98 7.94 6.96 13.88 9 20 C8.01 20.33 7.02 20.66 6 21 C4.99222971 18.25262623 3.99358554 15.50250048 3 12.75 C2.71382812 11.97269531 2.42765625 11.19539062 2.1328125 10.39453125 C1.72675781 9.26337891 1.72675781 9.26337891 1.3125 8.109375 C0.93544922 7.07248535 0.93544922 7.07248535 0.55078125 6.01464844 C0 4 0 4 0 0 Z " fill="#37969E" transform="translate(541,635)"/>
<path d="M0 0 C0.66 0 1.32 0 2 0 C1.67 1.98 1.34 3.96 1 6 C1.99 6.33 2.98 6.66 4 7 C2.31663276 11.53214258 0.44658957 15.55341043 -3 19 C-2.48446121 12.50149789 -1.53332291 6.33773468 0 0 Z " fill="#278189" transform="translate(450,439)"/>
<path d="M0 0 C0.33 0 0.66 0 1 0 C1.93384391 9.79498505 -0.80333396 17.90091845 -4 27 C-5.17629657 23.52474084 -4.81182496 21.12508519 -4.00390625 17.578125 C-3.77509766 16.55332031 -3.54628906 15.52851563 -3.31054688 14.47265625 C-2.94026367 12.87744141 -2.94026367 12.87744141 -2.5625 11.25 C-2.31951172 10.17105469 -2.07652344 9.09210938 -1.82617188 7.98046875 C-1.22543705 5.31838893 -0.61644487 2.65847791 0 0 Z " fill="#2B747B" transform="translate(460,392)"/>
<path d="M0 0 C3.06311603 3.06311603 3.84548091 6.87986581 5.1875 10.9375 C5.47302734 11.76185547 5.75855469 12.58621094 6.05273438 13.43554688 C6.31763672 14.22896484 6.58253906 15.02238281 6.85546875 15.83984375 C7.09934326 16.56550537 7.34321777 17.29116699 7.59448242 18.03881836 C8 20 8 20 7 23 C7 22.34 7 21.68 7 21 C6.34 21 5.68 21 5 21 C3.57741188 17.17679443 2.75957724 14.08718695 3 10 C2.34 10 1.68 10 1 10 C-0.1577506 6.52674819 -0.06866652 3.63932552 0 0 Z " fill="#2F878F" transform="translate(534,611)"/>
<path d="M0 0 C2.72363779 4.08545669 3.55869439 8.27470959 4.75 13 C4.99621094 13.91523438 5.24242187 14.83046875 5.49609375 15.7734375 C5.71910156 16.65257812 5.94210937 17.53171875 6.171875 18.4375 C6.3790918 19.24058594 6.58630859 20.04367187 6.79980469 20.87109375 C7 23 7 23 5 26 C2.75171948 21.50343896 2.83317728 17.92127034 3 13 C2.34 13 1.68 13 1 13 C0.67 8.71 0.34 4.42 0 0 Z " fill="#338A93" transform="translate(486,447)"/>
<path d="M0 0 C3.34530013 3.34530013 4.92459342 6.64268147 5.1875 11.375 C5.125625 12.24125 5.06375 13.1075 5 14 C5.66 14 6.32 14 7 14 C7 15.65 7 17.3 7 19 C4.45079375 15.82117052 2.58846828 12.50731355 0.75 8.875 C0.20859375 7.82054687 -0.3328125 6.76609375 -0.890625 5.6796875 C-1.25671875 4.79539062 -1.6228125 3.91109375 -2 3 C-1 1 -1 1 0 0 Z " fill="#287C82" transform="translate(154,594)"/>
<path d="M0 0 C0.99 0.33 1.98 0.66 3 1 C4.28317892 4.84953676 4.06643637 7.94738135 4 12 C2.35 11.67 0.7 11.34 -1 11 C-1.08912219 7.16774573 -0.87867729 3.73437848 0 0 Z " fill="#2DA3B0" transform="translate(882,404)"/>
<path d="M0 0 C0.99 0.33 1.98 0.66 3 1 C0.75 3.5 0.75 3.5 -2 6 C-3.32 6 -4.64 6 -6 6 C-6.33 7.65 -6.66 9.3 -7 11 C-8.32 10.67 -9.64 10.34 -11 10 C-10.61094382 7.27660672 -9.93262433 5.91096786 -8.25 3.6875 C-6 2 -6 2 -3.25 2.25 C-2.5075 2.4975 -1.765 2.745 -1 3 C-0.67 2.01 -0.34 1.02 0 0 Z " fill="#1D7E83" transform="translate(221,298)"/>
<path d="M0 0 C1.32 0 2.64 0 4 0 C4 0.66 4 1.32 4 2 C4.86625 2.268125 5.7325 2.53625 6.625 2.8125 C10 4 10 4 13.125 5.625 C16.07027495 7.287637 16.07027495 7.287637 20 7 C20 6.34 20 5.68 20 5 C20.66 5.33 21.32 5.66 22 6 C21.67 7.32 21.34 8.64 21 10 C22.32 10.66 23.64 11.32 25 12 C20.02582538 11.34602485 15.85435164 9.25766059 11.375 7.125 C10.611875 6.77308594 9.84875 6.42117188 9.0625 6.05859375 C8.32773437 5.71183594 7.59296875 5.36507812 6.8359375 5.0078125 C6.17126465 4.69473145 5.5065918 4.38165039 4.82177734 4.05908203 C2.87714226 2.92857721 1.51476915 1.65210196 0 0 Z " fill="#2D797F" transform="translate(257,711)"/>
<path d="M0 0 C-3.28742515 4.74850299 -3.28742515 4.74850299 -6.125 5.75 C-7.07375 5.8325 -8.0225 5.915 -9 6 C-9.81597656 6.11214844 -10.63195312 6.22429688 -11.47265625 6.33984375 C-16.72225272 7.01209423 -16.72225272 7.01209423 -19 7 C-19.66 6.34 -20.32 5.68 -21 5 C-18.03 5 -15.06 5 -12 5 C-12 4.34 -12 3.68 -12 3 C-10.3789897 2.30314502 -8.75303934 1.61777139 -7.125 0.9375 C-6.22007812 0.55464844 -5.31515625 0.17179688 -4.3828125 -0.22265625 C-2 -1 -2 -1 0 0 Z " fill="#319FA7" transform="translate(595,690)"/>
<path d="M0 0 C0 3 0 3 -2.4375 5.5 C-3.283125 6.325 -4.12875 7.15 -5 8 C-5.33 8.99 -5.66 9.98 -6 11 C-8.47288594 13.13179822 -11.04582705 14.6284197 -14 16 C-14.99 15.34 -15.98 14.68 -17 14 C-16.35933594 13.57589844 -15.71867187 13.15179687 -15.05859375 12.71484375 C-9.46231844 8.920052 -4.57397432 4.9829058 0 0 Z " fill="#2B7D83" transform="translate(428,518)"/>
<path d="M0 0 C0.66 0 1.32 0 2 0 C1.44649229 3.32104626 0.85908781 6.16244492 -1 9 C-3.125 10.25 -3.125 10.25 -5 11 C-5 8 -5 8 -4 7 C-5.32 6.67 -6.64 6.34 -8 6 C-5.63772045 3.63772045 -4.18219103 3.06073034 -1 2 C-0.34 2.33 0.32 2.66 1 3 C0.67 2.01 0.34 1.02 0 0 Z " fill="#2DADB9" transform="translate(840,646)"/>
<path d="M0 0 C0 4.0744433 -2.09169249 6.11745033 -4.5 9.1875 C-4.92925781 9.74630859 -5.35851562 10.30511719 -5.80078125 10.88085938 C-6.86078055 12.25885847 -7.92956188 13.63009407 -9 15 C-9 11.53993431 -8.67904468 8.39522342 -8 5 C-5.37352812 3.24901874 -2.71224618 1.61268692 0 0 Z " fill="#339CA7" transform="translate(850,638)"/>
<path d="M0 0 C3 1 3 1 4.5625 3.875 C5.036875 4.90625 5.51125 5.9375 6 7 C6.99 8.485 6.99 8.485 8 10 C7.01 10.66 6.02 11.32 5 12 C4.67 11.67 4.34 11.34 4 11 C4 12.65 4 14.3 4 16 C1.11388804 11.0523795 0 5.66834163 0 0 Z " fill="#237D83" transform="translate(496,360)"/>
<path d="M0 0 C0.66 0.33 1.32 0.66 2 1 C1.360625 1.598125 0.72125 2.19625 0.0625 2.8125 C-2.20310389 4.90810337 -2.20310389 4.90810337 -3 8 C-4.92578125 9.53515625 -4.92578125 9.53515625 -7.3125 11.0625 C-8.09238281 11.56910156 -8.87226563 12.07570313 -9.67578125 12.59765625 C-11.74495097 13.84611328 -13.8211285 14.95793102 -16 16 C-11.17917294 10.03739811 -5.77505724 5.03320206 0 0 Z " fill="#266E73" transform="translate(210,303)"/>
<path d="M0 0 C5.00113594 1.48008696 9.32915597 3.6318336 13.875 6.125 C14.56335938 6.49753906 15.25171875 6.87007813 15.9609375 7.25390625 C17.64294798 8.16499526 19.32180436 9.08190315 21 10 C19 11 19 11 15.5 9.875 C10.56615783 7.90146313 5.48342122 5.86659291 1 3 C0.67 2.01 0.34 1.02 0 0 Z " fill="#2D868C" transform="translate(766,275)"/>
<path d="M0 0 C-1.24976756 3.65316671 -1.67098753 4.78065836 -5 7 C-6.49470029 11.48410087 -6.09166185 16.32524567 -6 21 C-8.52692114 18.47307886 -8.38257153 17.38806853 -8.5 13.875 C-8.42819066 8.42467106 -6.94009439 5.5002587 -3.5078125 1.36328125 C-2 0 -2 0 0 0 Z " fill="#E2F5F8" transform="translate(313,507)"/>
<path d="M0 0 C2.45870984 3.68806476 3.45051883 7.27805286 4.6875 11.5 C4.92533203 12.27214844 5.16316406 13.04429687 5.40820312 13.83984375 C5.62798828 14.58363281 5.84777344 15.32742188 6.07421875 16.09375 C6.27619873 16.77115234 6.47817871 17.44855469 6.6862793 18.14648438 C7 20 7 20 6 23 C2.82160178 19.54521933 2.58070802 16.5627059 2 12 C1.34 11.01 0.68 10.02 0 9 C-0.1953125 6.73828125 -0.1953125 6.73828125 -0.125 4.3125 C-0.10695313 3.50425781 -0.08890625 2.69601562 -0.0703125 1.86328125 C-0.04710937 1.24839844 -0.02390625 0.63351562 0 0 Z " fill="#297F84" transform="translate(505,517)"/>
<path d="M0 0 C2.475 0.99 2.475 0.99 5 2 C5 6 5 6 4 9 C2.68 9 1.36 9 0 9 C-1.125 6.1875 -1.125 6.1875 -2 3 C-1.34 2.01 -0.68 1.02 0 0 Z M0 2 C0.66 2.66 1.32 3.32 2 4 C2 3.34 2 2.68 2 2 C1.34 2 0.68 2 0 2 Z " fill="#24AEBD" transform="translate(802,680)"/>
<path d="M0 0 C0.66 0.33 1.32 0.66 2 1 C2 1.66 2 2.32 2 3 C3.65 2.01 5.3 1.02 7 0 C7 1.32 7 2.64 7 4 C5.68 4.33 4.36 4.66 3 5 C3 5.66 3 6.32 3 7 C0.69 7 -1.62 7 -4 7 C-3.01 6.01 -2.02 5.02 -1 4 C-1.66 3.34 -2.32 2.68 -3 2 C-2.01 1.34 -1.02 0.68 0 0 Z " fill="#2DABB7" transform="translate(737,720)"/>
<path d="M0 0 C1.65 0.33 3.3 0.66 5 1 C4.6875 4.375 4.6875 4.375 4 8 C3.01 8.66 2.02 9.32 1 10 C-0.625 7.8125 -0.625 7.8125 -2 5 C-1.1875 2.1875 -1.1875 2.1875 0 0 Z " fill="#258791" transform="translate(163,610)"/>
<path d="M0 0 C0.33 0 0.66 0 1 0 C1.02578125 0.72445312 1.0515625 1.44890625 1.078125 2.1953125 C1.43478562 8.27475489 1.99118083 12.1658357 6 17 C6.5775 17.78375 7.155 18.5675 7.75 19.375 C8.1625 19.91125 8.575 20.4475 9 21 C6.13302508 19.71480435 4.02392288 18.42870746 2 16 C2 15.34 2 14.68 2 14 C1.34 14 0.68 14 0 14 C-1.86987216 10.26025568 -1.30641834 5.53209172 -0.5 1.5 C-0.335 1.005 -0.17 0.51 0 0 Z " fill="#327B81" transform="translate(304,515)"/>
<path d="M0 0 C-0.33 0.66 -0.66 1.32 -1 2 C-3.71446979 2.31241455 -6.33909361 2.51336592 -9.0625 2.625 C-9.82111328 2.66367187 -10.57972656 2.70234375 -11.36132812 2.7421875 C-13.24047195 2.83673562 -15.12020336 2.91946756 -17 3 C-17 2.34 -17 1.68 -17 1 C-10.97767819 -0.46619907 -6.09632423 -1.32528788 0 0 Z " fill="#2F7E84" transform="translate(314,261)"/>
<path d="M0 0 C2.375 0.25 2.375 0.25 5 1 C6.3125 3.0625 6.3125 3.0625 7 5 C5 7 5 7 1.875 7.125 C0.451875 7.063125 0.451875 7.063125 -1 7 C-1 6.01 -1 5.02 -1 4 C-0.34 4 0.32 4 1 4 C0.67 2.68 0.34 1.36 0 0 Z " fill="#2A9FA9" transform="translate(564,689)"/>
<path d="M0 0 C0.66 0 1.32 0 2 0 C3.47079646 7.10884956 3.47079646 7.10884956 1.25 11.3125 C-0.43353201 13.32338545 -2.05288941 15.24760047 -4 17 C-3.67 15.02 -3.34 13.04 -3 11 C-2.34 11 -1.68 11 -1 11 C-1.33 9.68 -1.66 8.36 -2 7 C-1.34 7 -0.68 7 0 7 C0 4.69 0 2.38 0 0 Z " fill="#2BA5B0" transform="translate(612,639)"/>
<path d="M0 0 C0.33 0 0.66 0 1 0 C1.33 3.3 1.66 6.6 2 10 C1.34 10 0.68 10 0 10 C0 10.66 0 11.32 0 12 C-0.99 11.67 -1.98 11.34 -3 11 C-3 8.36 -3 5.72 -3 3 C-2.01 2.67 -1.02 2.34 0 2 C0 1.34 0 0.68 0 0 Z " fill="#2AB1BC" transform="translate(885,553)"/>
<path d="M0 0 C-1 2 -1 2 -3.87109375 3.0703125 C-5.04800781 3.41835938 -6.22492187 3.76640625 -7.4375 4.125 C-9.19900391 4.65480469 -9.19900391 4.65480469 -10.99609375 5.1953125 C-14 6 -14 6 -16 6 C-15.67 5.01 -15.34 4.02 -15 3 C-9.72006588 0.54209963 -5.78159553 -0.36134972 0 0 Z " fill="#3A939C" transform="translate(640,503)"/>
<path d="M0 0 C1.06140282 3.18420845 0.95892549 4.08459109 0.22265625 7.23046875 C-0.05288086 8.43413086 -0.05288086 8.43413086 -0.33398438 9.66210938 C-0.63272461 10.91217773 -0.63272461 10.91217773 -0.9375 12.1875 C-1.13279297 13.03248047 -1.32808594 13.87746094 -1.52929688 14.74804688 C-2.01241264 16.833693 -2.50527904 18.91707614 -3 21 C-3.33 21 -3.66 21 -4 21 C-4.25120308 6.87680462 -4.25120308 6.87680462 -1 2 C-0.67 1.34 -0.34 0.68 0 0 Z " fill="#27787E" transform="translate(414,452)"/>
<path d="M0 0 C2.91316254 1.45658127 3.09207774 3.36160014 4.1875 6.375 C4.55230469 7.35210937 4.91710937 8.32921875 5.29296875 9.3359375 C6 12 6 12 5 15 C4.34 14.67 3.68 14.34 3 14 C2.375 10.9375 2.375 10.9375 2 8 C1.34 8 0.68 8 0 8 C0 5.36 0 2.72 0 0 Z " fill="#309299" transform="translate(878,390)"/>
<path d="M0 0 C1.35546594 4.06639781 0.79729699 7.12331904 -1 11 C-4 13.0625 -4 13.0625 -7 14 C-7.66 13.67 -8.32 13.34 -9 13 C-8.60167969 12.56429687 -8.20335937 12.12859375 -7.79296875 11.6796875 C-4.51063169 7.99005314 -2.00600254 4.56922802 0 0 Z " fill="#2D8991" transform="translate(599,677)"/>
<path d="M0 0 C0 6.1901421 -6.76212892 11.87491604 -11 16.125 C-11.66 16.74375 -12.32 17.3625 -13 18 C-13.66 17.67 -14.32 17.34 -15 17 C-14.16855469 16.10796875 -13.33710937 15.2159375 -12.48046875 14.296875 C-11.38271261 13.11467608 -10.2850619 11.93237926 -9.1875 10.75 C-8.64029297 10.16347656 -8.09308594 9.57695313 -7.52929688 8.97265625 C-4.85219687 6.08463321 -2.27491168 3.22478709 0 0 Z " fill="#DEF7FA" transform="translate(840,653)"/>
<path d="M0 0 C2 3 2 3 2 5 C3.65 4.67 5.3 4.34 7 4 C7.33 4.66 7.66 5.32 8 6 C7.01 6.33 6.02 6.66 5 7 C6.98 9.31 8.96 11.62 11 14 C7.15718264 12.07859132 5.19568073 10.4073184 2.25 7.375 C1.45078125 6.55773437 0.6515625 5.74046875 -0.171875 4.8984375 C-0.77515625 4.27195312 -1.3784375 3.64546875 -2 3 C-1.34 2.67 -0.68 2.34 0 2 C0 1.34 0 0.68 0 0 Z " fill="#35858B" transform="translate(205,668)"/>
<path d="M0 0 C2 3.75 2 3.75 2 6 C2.66 6.66 3.32 7.32 4 8 C3.01 8.495 3.01 8.495 2 9 C1.01 8.34 0.02 7.68 -1 7 C-2.65 9.64 -4.3 12.28 -6 15 C-6.33 14.34 -6.66 13.68 -7 13 C-5.92325298 10.71741367 -4.80453884 8.5643566 -3.5625 6.375 C-3.22412109 5.76398437 -2.88574219 5.15296875 -2.53710938 4.5234375 C-1.69853808 3.011647 -0.85017423 1.50529601 0 0 Z " fill="#E4F6F8" transform="translate(866,613)"/>
<path d="M0 0 C2.13181214 3.74287627 1.95685425 5.78984129 1 10 C0.34 10 -0.32 10 -1 10 C-1.33 12.64 -1.66 15.28 -2 18 C-2.33 18 -2.66 18 -3 18 C-3.36517527 11.42684522 -2.13619737 6.20514474 0 0 Z " fill="#3AACB8" transform="translate(890,536)"/>
<path d="M0 0 C1.29065057 3.8719517 0.22324098 6.44232601 -0.9375 10.1875 C-1.23043945 11.16879883 -1.23043945 11.16879883 -1.52929688 12.16992188 C-2.01182563 13.78227407 -2.50490205 15.39146289 -3 17 C-5 14 -5 14 -4.5390625 11.08203125 C-4.23742187 10.00308594 -3.93578125 8.92414062 -3.625 7.8125 C-3.32851563 6.72582031 -3.03203125 5.63914062 -2.7265625 4.51953125 C-2.48679687 3.68808594 -2.24703125 2.85664062 -2 2 C-1.34 2 -0.68 2 0 2 C0 1.34 0 0.68 0 0 Z " fill="#2C8891" transform="translate(605,537)"/>
<path d="M0 0 C0.33 0 0.66 0 1 0 C1.30268153 5.14558605 0.8378619 7.74320715 -2 12 C-2.71143088 13.98451771 -3.38991336 15.98202112 -4 18 C-4.66 18 -5.32 18 -6 18 C-4.41039668 11.76559832 -2.72399099 5.83712355 0 0 Z " fill="#DFF6F8" transform="translate(611,524)"/>
<path d="M0 0 C0.66 0 1.32 0 2 0 C2.38971999 2.10149011 2.76131477 4.2063482 3.125 6.3125 C3.33382813 7.48425781 3.54265625 8.65601563 3.7578125 9.86328125 C4 13 4 13 2 16 C1.46748234 14.08654673 0.94940517 12.1690705 0.4375 10.25 C0.14746094 9.18265625 -0.14257812 8.1153125 -0.44140625 7.015625 C-0.97098494 4.15664073 -0.98370862 2.68402617 0 0 Z " fill="#2B8184" transform="translate(493,344)"/>
<path d="M0 0 C0.99 0.33 1.98 0.66 3 1 C4.01953125 3.36328125 4.01953125 3.36328125 4.8125 6.3125 C5.08707031 7.27800781 5.36164062 8.24351562 5.64453125 9.23828125 C6.03785566 12.29410938 5.65752886 13.462474 4 16 C3.32815382 13.89748139 2.66269032 11.79292237 2 9.6875 C1.443125 7.92986328 1.443125 7.92986328 0.875 6.13671875 C0 3 0 3 0 0 Z " fill="#2D838C" transform="translate(548,544)"/>
<path d="M0 0 C0.66 0 1.32 0 2 0 C0.33333333 5 -1.33333333 10 -3 15 C-3.33 15 -3.66 15 -4 15 C-4.68829114 6.39636076 -4.68829114 6.39636076 -2.125 2.4375 C-1.073125 1.2309375 -1.073125 1.2309375 0 0 Z " fill="#2A7C7F" transform="translate(448,302)"/>
<path d="M0 0 C-1.84403511 1.97068588 -3.29802947 2.94648579 -6.01757812 3.15380859 C-8.43913566 3.07039484 -10.83641838 2.900574 -13.25 2.6875 C-14.09046875 2.62626953 -14.9309375 2.56503906 -15.796875 2.50195312 C-17.86570599 2.34914175 -19.93305508 2.17649838 -22 2 C-22 1.67 -22 1.34 -22 1 C-14.63959083 0.20274098 -7.40239645 -0.12886183 0 0 Z " fill="#D9F1F5" transform="translate(696,739)"/>
<path d="M0 0 C1.5625 1.8125 1.5625 1.8125 3 4 C2.67 4.99 2.34 5.98 2 7 C1.01 7 0.02 7 -1 7 C-1.33 7.99 -1.66 8.98 -2 10 C-3.32 9.34 -4.64 8.68 -6 8 C-5.195625 7.236875 -4.39125 6.47375 -3.5625 5.6875 C-0.83200976 3.20569102 -0.83200976 3.20569102 0 0 Z " fill="#29B2C1" transform="translate(794,688)"/>
<path d="M0 0 C1.45047396 2.90094791 0.45356803 4.55972596 -0.4375 7.625 C-0.72496094 8.62789062 -1.01242187 9.63078125 -1.30859375 10.6640625 C-1.53675781 11.43492187 -1.76492188 12.20578125 -2 13 C-2.99 12.67 -3.98 12.34 -5 12 C-4.55149342 10.18504338 -4.09090429 8.37306866 -3.625 6.5625 C-3.36976563 5.55316406 -3.11453125 4.54382813 -2.8515625 3.50390625 C-2 1 -2 1 0 0 Z " fill="#35929D" transform="translate(637,554)"/>
<path d="M0 0 C0.33 0 0.66 0 1 0 C1.33 1.98 1.66 3.96 2 6 C1.34 6 0.68 6 0 6 C-0.103125 6.639375 -0.20625 7.27875 -0.3125 7.9375 C-0.539375 8.618125 -0.76625 9.29875 -1 10 C-1.99 10.33 -2.98 10.66 -4 11 C-5.20882096 13.00016466 -5.20882096 13.00016466 -6 15 C-6 11.21286807 -4.73107406 9.16645599 -3 5.8125 C-2.443125 4.72582031 -1.88625 3.63914062 -1.3125 2.51953125 C-0.879375 1.68808594 -0.44625 0.85664063 0 0 Z " fill="#2D8085" transform="translate(436,503)"/>
<path d="M0 0 C0.66 0.33 1.32 0.66 2 1 C-0.47783163 3.92300138 -2.9851711 4.97340327 -6.5625 6.25 C-8.01849609 6.78367187 -8.01849609 6.78367187 -9.50390625 7.328125 C-12 8 -12 8 -14 7 C-11.71296692 5.80274117 -9.42115138 4.61702982 -7.125 3.4375 C-6.14853516 2.92413086 -6.14853516 2.92413086 -5.15234375 2.40039062 C-3.46470143 1.53917109 -1.73420407 0.76313297 0 0 Z " fill="#2A7174" transform="translate(257,275)"/>
<path d="M0 0 C0.33 0.66 0.66 1.32 1 2 C2.32 1.67 3.64 1.34 5 1 C3.55609075 4.80666984 1.65047197 6.26602582 -2 8 C-2.66 7.67 -3.32 7.34 -4 7 C-3.43628586 3.73045798 -2.50037734 2.17424117 0 0 Z " fill="#36A2AD" transform="translate(781,700)"/>
<path d="M0 0 C1.32 0.66 2.64 1.32 4 2 C2.52307692 6.67692308 2.52307692 6.67692308 -0.125 8.3125 C-1.053125 8.6528125 -1.053125 8.6528125 -2 9 C-1.125 1.125 -1.125 1.125 0 0 Z " fill="#2EA5B3" transform="translate(851,630)"/>
<path d="M0 0 C0.66 0 1.32 0 2 0 C3.42944945 2.35438733 4.08661261 3.48032433 3.625 6.25 C3.41875 6.8275 3.2125 7.405 3 8 C3 7.34 3 6.68 3 6 C1.35 6.66 -0.3 7.32 -2 8 C-2.33 7.34 -2.66 6.68 -3 6 C-2.06553465 3.96855359 -1.06775224 1.96466413 0 0 Z " fill="#23A2AD" transform="translate(620,618)"/>
<path d="M0 0 C-1.27514492 2.55028983 -2.40341297 2.93081711 -5 4 C-5.99 4 -6.98 4 -8 4 C-8.33 4.66 -8.66 5.32 -9 6 C-8.7215625 5.1028125 -8.7215625 5.1028125 -8.4375 4.1875 C-7.77906313 1.83591238 -7.77906313 1.83591238 -9 -1 C-5.79937313 -2.60031344 -3.27728194 -1.03173691 0 0 Z " fill="#219FAB" transform="translate(625,506)"/>
<path d="M0 0 C1.32 0 2.64 0 4 0 C4 0.66 4 1.32 4 2 C3.45730469 2.25394531 2.91460937 2.50789063 2.35546875 2.76953125 C1.28232422 3.28580078 1.28232422 3.28580078 0.1875 3.8125 C-0.52019531 4.14894531 -1.22789062 4.48539062 -1.95703125 4.83203125 C-4.01129035 6.00645471 -5.41616278 7.25628016 -7 9 C-7 5 -7 5 -5 2.75 C-4.01 1.88375 -4.01 1.88375 -3 1 C-2.01 1.33 -1.02 1.66 0 2 C0 1.34 0 0.68 0 0 Z " fill="#318689" transform="translate(314,503)"/>
<path d="M0 0 C1.32 0 2.64 0 4 0 C5.23076923 6.4 5.23076923 6.4 4.0625 9.4375 C3.711875 9.953125 3.36125 10.46875 3 11 C2.49384702 9.73160474 1.99530901 8.46016898 1.5 7.1875 C1.2215625 6.47980469 0.943125 5.77210938 0.65625 5.04296875 C0 3 0 3 0 0 Z " fill="#2EA5B1" transform="translate(570,610)"/>
<path d="M0 0 C0.99 0.33 1.98 0.66 3 1 C3.36340286 2.76896102 3.71540883 4.54026626 4.0625 6.3125 C4.25972656 7.29863281 4.45695313 8.28476562 4.66015625 9.30078125 C5 12 5 12 4 15 C3.32532438 13.25307205 2.66055844 11.50231475 2 9.75 C1.62875 8.77546875 1.2575 7.8009375 0.875 6.796875 C0 4 0 4 0 0 Z " fill="#2D868C" transform="translate(553,560)"/>
<path d="M0 0 C0.99 0.66 1.98 1.32 3 2 C0.94037148 2.67548578 -1.12284322 3.34004312 -3.1875 4 C-4.33605469 4.37125 -5.48460937 4.7425 -6.66796875 5.125 C-9.64320812 5.90630553 -11.95283896 6.18363306 -15 6 C-15 5.34 -15 4.68 -15 4 C-14.41992188 3.96261719 -13.83984375 3.92523437 -13.2421875 3.88671875 C-8.18321136 3.46096333 -4.45720842 2.62861009 0 0 Z " fill="#DFF6F8" transform="translate(407,531)"/>
<path d="M0 0 C0.66 0 1.32 0 2 0 C1.41509121 6.14154225 0.45933748 12.00679849 -1 18 C-1.33 18 -1.66 18 -2 18 C-1.85946128 15.37461716 -1.71281053 12.74982573 -1.5625 10.125 C-1.52318359 9.37863281 -1.48386719 8.63226563 -1.44335938 7.86328125 C-1.11328125 2.2265625 -1.11328125 2.2265625 0 0 Z " fill="#277679" transform="translate(424,401)"/>
<path d="M0 0 C2.66666667 2.66666667 5.33333333 5.33333333 8 8 C7.67 8.66 7.34 9.32 7 10 C6.01 9.34 5.02 8.68 4 8 C4 8.66 4 9.32 4 10 C2.02 10.99 2.02 10.99 0 12 C0.350625 11.2575 0.70125 10.515 1.0625 9.75 C2.06789411 6.80084393 2.04332005 5.84541832 1 3 C0.67 2.01 0.34 1.02 0 0 Z " fill="#2B8F97" transform="translate(841,330)"/>
<path d="M0 0 C3.94139078 1.66751148 6.7892812 4.22710649 10 7 C8.68 7.33 7.36 7.66 6 8 C6 7.01 6 6.02 6 5 C5.401875 5.226875 4.80375 5.45375 4.1875 5.6875 C3.465625 5.790625 2.74375 5.89375 2 6 C0.25 4.5625 0.25 4.5625 -1 3 C-0.34 3 0.32 3 1 3 C0.67 2.01 0.34 1.02 0 0 Z " fill="#2C8E97" transform="translate(812,303)"/>
<path d="M0 0 C1.8871875 0.0309375 1.8871875 0.0309375 3.8125 0.0625 C3.8125 0.3925 3.8125 0.7225 3.8125 1.0625 C2.760625 1.145 1.70875 1.2275 0.625 1.3125 C-3.51983102 2.12787659 -4.98868052 3.46886258 -8.1875 6.0625 C-10.5 5.8125 -10.5 5.8125 -12.1875 5.0625 C-8.089169 1.62876322 -5.385198 -0.08828193 0 0 Z " fill="#DDF0F4" transform="translate(464.1875,295.9375)"/>
<path d="M0 0 C2 3 2 3 1.7578125 5.48046875 C1.54898438 6.37378906 1.34015625 7.26710938 1.125 8.1875 C0.92132812 9.08855469 0.71765625 9.98960937 0.5078125 10.91796875 C0.25644531 11.94857422 0.25644531 11.94857422 0 13 C-0.99 12.67 -1.98 12.34 -3 12 C-2.01 8.04 -1.02 4.08 0 0 Z " fill="#2D8E98" transform="translate(605,660)"/>
<path d="M0 0 C1.32 0 2.64 0 4 0 C2.45730076 4.72065967 0.92205381 9.41664092 -1 14 C-2.15837573 10.52487282 -1.77265943 8.86329714 -1.0625 5.3125 C-0.86785156 4.31863281 -0.67320312 3.32476563 -0.47265625 2.30078125 C-0.31667969 1.54152344 -0.16070313 0.78226563 0 0 Z " fill="#2B868C" transform="translate(608,522)"/>
<path d="M0 0 C4.99911924 0.47610659 7.97832683 2.03162219 12 5 C9.5332355 5.88336837 8.36140628 6.1312406 5.859375 5.22265625 C5.16328125 4.83980469 4.4671875 4.45695312 3.75 4.0625 C3.04359375 3.68222656 2.3371875 3.30195313 1.609375 2.91015625 C1.07828125 2.60980469 0.5471875 2.30945313 0 2 C0 1.34 0 0.68 0 0 Z " fill="#37959B" transform="translate(714,502)"/>
<path d="M0 0 C2.35348271 2.35348271 2.36468749 3.21466691 2.6875 6.4375 C2.77386719 7.21996094 2.86023438 8.00242187 2.94921875 8.80859375 C3 11 3 11 2 14 C1.34 14 0.68 14 0 14 C-0.77916092 8.97874074 -1.13016601 5.02296004 0 0 Z " fill="#36858A" transform="translate(465,366)"/>
<path d="M0 0 C3 1 3 1 4.421875 3.1796875 C4.86015625 4.06914062 5.2984375 4.95859375 5.75 5.875 C6.19859375 6.75929688 6.6471875 7.64359375 7.109375 8.5546875 C8 11 8 11 7 14 C6.34 12.02 5.68 10.04 5 8 C4.34 8 3.68 8 3 8 C3 7.34 3 6.68 3 6 C2.34 6 1.68 6 1 6 C0.67 4.02 0.34 2.04 0 0 Z " fill="#338D99" transform="translate(869,373)"/>
<path d="M0 0 C3.43301724 0.77907956 6.75410038 1.62425447 10 3 C11.625 5.6875 11.625 5.6875 12 8 C7.44328408 6.48109469 3.68276708 4.04597738 0 1 C0 0.67 0 0.34 0 0 Z " fill="#308589" transform="translate(238,699)"/>
<path d="M0 0 C0.33 0 0.66 0 1 0 C0.51679152 6.2054142 -0.33318124 11.99945246 -2 18 C-2.66 17.01 -3.32 16.02 -4 15 C-3.60341556 13.31451615 -3.18965975 11.62912833 -2.6484375 9.984375 C-1.95483536 7.86178533 -1.40564497 5.73122291 -0.875 3.5625 C-0.58625 2.386875 -0.2975 1.21125 0 0 Z " fill="#2A7578" transform="translate(429,382)"/>
<path d="M0 0 C4.29 0.66 8.58 1.32 13 2 C13 2.66 13 3.32 13 4 C13.66 4.33 14.32 4.66 15 5 C4.44191344 3.07289294 4.44191344 3.07289294 0 1 C0 0.67 0 0.34 0 0 Z " fill="#31808A" transform="translate(293,727)"/>
<path d="M0 0 C1.9375 1.0625 1.9375 1.0625 4 3 C4.75 6.6875 4.75 6.6875 5 10 C4.01 10.66 3.02 11.32 2 12 C0.86235649 7.73383684 0 4.43513689 0 0 Z " fill="#21777C" transform="translate(136,544)"/>
<path d="M0 0 C1.96482034 2.94723051 2.7561217 5.11977826 3.6875 8.5 C3.95949219 9.4590625 4.23148437 10.418125 4.51171875 11.40625 C5 14 5 14 4 17 C0.61504892 11.55464391 0.32626495 6.32278971 0 0 Z " fill="#297B81" transform="translate(495,481)"/>
<path d="M0 0 C2.26954631 3.40431947 2.36549949 5.16524202 2.625 9.1875 C2.69976563 10.27417969 2.77453125 11.36085938 2.8515625 12.48046875 C2.92503906 13.72763672 2.92503906 13.72763672 3 15 C2.01 14.34 1.02 13.68 0 13 C-0.29296875 9.9609375 -0.29296875 9.9609375 -0.1875 6.375 C-0.16042969 5.18648438 -0.13335938 3.99796875 -0.10546875 2.7734375 C-0.07066406 1.85820312 -0.03585937 0.94296875 0 0 Z " fill="#308C91" transform="translate(890,428)"/>
<path d="M0 0 C0.33 0.66 0.66 1.32 1 2 C-8.41002278 3.33257403 -8.41002278 3.33257403 -13 2 C-13 1.67 -13 1.34 -13 1 C-8.59085217 -0.10228696 -4.51617599 -0.07654536 0 0 Z " fill="#277378" transform="translate(322,259)"/>
<path d="M0 0 C1.32 0.33 2.64 0.66 4 1 C2.9375 2.9375 2.9375 2.9375 1 5 C-2.6875 5.75 -2.6875 5.75 -6 6 C-6.33 5.34 -6.66 4.68 -7 4 C-4.69 3.34 -2.38 2.68 0 2 C0 1.34 0 0.68 0 0 Z " fill="#34ADB7" transform="translate(762,712)"/>
<path d="M0 0 C3.34373475 0.55728913 6.03312999 1.35173889 9 3 C9 4.32 9 5.64 9 7 C5.18315774 5.44499019 2.80804268 2.96404505 0 0 Z " fill="#2D858F" transform="translate(222,687)"/>
<path d="M0 0 C0.66 0.99 1.32 1.98 2 3 C1.34 3.66 0.68 4.32 0 5 C-0.928125 6.2375 -0.928125 6.2375 -1.875 7.5 C-3.92938576 9.91692443 -5.19311538 10.73161699 -8 12 C-6.85573734 10.186508 -5.70954608 8.37423275 -4.5625 6.5625 C-3.60537109 5.04849609 -3.60537109 5.04849609 -2.62890625 3.50390625 C-1 1 -1 1 0 0 Z " fill="#E0F8F9" transform="translate(854,634)"/>
<path d="M0 0 C1.125 1.625 1.125 1.625 2 4 C1.125 7.25 1.125 7.25 0 10 C-0.66 10 -1.32 10 -2 10 C-2.33 10.66 -2.66 11.32 -3 12 C-3 9.69 -3 7.38 -3 5 C-2.34 5 -1.68 5 -1 5 C-0.67 3.35 -0.34 1.7 0 0 Z " fill="#369CA4" transform="translate(585,603)"/>
<path d="M0 0 C0.99 0.33 1.98 0.66 3 1 C3.66 0.67 4.32 0.34 5 0 C3.95902388 3.86648272 2.96301592 7.49461443 1 11 C-1.42857143 3.57142857 -1.42857143 3.57142857 0 0 Z " fill="#1F7F88" transform="translate(147,576)"/>
<path d="M0 0 C0.66 0.66 1.32 1.32 2 2 C1.72265625 3.765625 1.72265625 3.765625 1 6 C0.75121094 6.92296875 0.50242187 7.8459375 0.24609375 8.796875 C-0.02074219 9.77140625 -0.28757812 10.7459375 -0.5625 11.75 C-0.83191406 12.73484375 -1.10132813 13.7196875 -1.37890625 14.734375 C-1.58386719 15.48203125 -1.78882813 16.2296875 -2 17 C-2.66 17 -3.32 17 -4 17 C-2.68 11.39 -1.36 5.78 0 0 Z " fill="#DDF6F5" transform="translate(603,547)"/>
<path d="M0 0 C1.96282811 2.79597098 2.00108464 3.99187436 1.5390625 7.453125 C1.23742187 8.70609375 0.93578125 9.9590625 0.625 11.25 C0.32851563 12.51328125 0.03203125 13.7765625 -0.2734375 15.078125 C-0.51320313 16.04234375 -0.75296875 17.0065625 -1 18 C-1.33 18 -1.66 18 -2 18 C-1.8590651 15.56212615 -1.71245458 13.12482147 -1.5625 10.6875 C-1.52318359 9.99720703 -1.48386719 9.30691406 -1.44335938 8.59570312 C-1.25072585 5.52838465 -0.97677283 2.93031848 0 0 Z " fill="#2C7A81" transform="translate(420,419)"/>
<path d="M0 0 C2.29633824 3.44450737 2.54016485 5.93812283 3 10 C1.02 10.99 1.02 10.99 -1 12 C-1.08159574 7.83861737 -0.98248524 4.0527516 0 0 Z " fill="#29A8B5" transform="translate(553,669)"/>
<path d="M0 0 C1.15957207 3.47871621 0.77456651 4.34219645 -0.4375 7.6875 C-0.86869141 8.89986328 -0.86869141 8.89986328 -1.30859375 10.13671875 C-1.53675781 10.75160156 -1.76492188 11.36648438 -2 12 C-2.66 11.01 -3.32 10.02 -4 9 C-3.125 5.3125 -3.125 5.3125 -2 2 C-1.34 2 -0.68 2 0 2 C0 1.34 0 0.68 0 0 Z " fill="#3797A0" transform="translate(627,588)"/>
<path d="M0 0 C0.33 0.66 0.66 1.32 1 2 C1.66 2 2.32 2 3 2 C4.125 5.3125 4.125 5.3125 5 9 C4.01 10.485 4.01 10.485 3 12 C2.49440092 10.56445975 1.9957251 9.1264798 1.5 7.6875 C1.2215625 6.88699219 0.943125 6.08648438 0.65625 5.26171875 C0 3 0 3 0 0 Z " fill="#34949D" transform="translate(512,545)"/>
<path d="M0 0 C0.33 0 0.66 0 1 0 C1 2.64 1 5.28 1 8 C-0.32 8.33 -1.64 8.66 -3 9 C-3.33 7.35 -3.66 5.7 -4 4 C-3.01 4 -2.02 4 -1 4 C-0.67 2.68 -0.34 1.36 0 0 Z " fill="#2EB2BD" transform="translate(892,519)"/>
<path d="M0 0 C2.1640625 0.3671875 2.1640625 0.3671875 4 1 C2.9275 1.7425 1.855 2.485 0.75 3.25 C-2.10884102 5.28540202 -4.60795785 7.41659448 -7 10 C-5.61166236 5.58256205 -3.60286648 2.9166062 0 0 Z " fill="#E3F8FA" transform="translate(621,511)"/>
<path d="M0 0 C0.66 0 1.32 0 2 0 C2.53122363 1.76774419 3.04964073 3.53934083 3.5625 5.3125 C3.85253906 6.29863281 4.14257812 7.28476562 4.44140625 8.30078125 C5 11 5 11 4 14 C2.74335022 11.09399739 2 9.20395416 2 6 C1.34 6 0.68 6 0 6 C0 4.02 0 2.04 0 0 Z " fill="#2A7C83" transform="translate(500,502)"/>
<path d="M0 0 C0.33 1.32 0.66 2.64 1 4 C1.66 4.33 2.32 4.66 3 5 C2.67 7.31 2.34 9.62 2 12 C0.68 11.34 -0.64 10.68 -2 10 C-1.34 6.7 -0.68 3.4 0 0 Z " fill="#35B1BE" transform="translate(891,439)"/>
<path d="M0 0 C2 2 2 2 3 4.0625 C3.84589942 6.16865601 3.84589942 6.16865601 6 7 C7.03145371 8.30915279 8.03542166 9.64082143 9 11 C6 11 6 11 4.39453125 9.609375 C3.87246094 8.99578125 3.35039062 8.3821875 2.8125 7.75 C2.28269531 7.14671875 1.75289062 6.5434375 1.20703125 5.921875 C0 4 0 4 0 0 Z " fill="#338188" transform="translate(181,642)"/>
<path d="M0 0 C1.64826111 2.96687001 2.44271087 5.65626525 3 9 C2.34 9 1.68 9 1 9 C0.67 10.32 0.34 11.64 0 13 C-0.19658808 11.58456585 -0.38187546 10.16755969 -0.5625 8.75 C-0.66691406 7.96109375 -0.77132812 7.1721875 -0.87890625 6.359375 C-1.00027349 3.99467126 -0.69633257 2.2488963 0 0 Z " fill="#3EB1BC" transform="translate(893,505)"/>
<path d="M0 0 C0.33 0 0.66 0 1 0 C1.05410687 1.77049689 1.09284119 3.54146849 1.125 5.3125 C1.14820313 6.29863281 1.17140625 7.28476562 1.1953125 8.30078125 C1 11 1 11 -1 14 C-2.33500455 8.65998179 -1.512545 5.16044765 0 0 Z " fill="#2B7F88" transform="translate(460,392)"/>
<path d="M0 0 C0.66 0 1.32 0 2 0 C3 3 3 3 2 6 C0.37667033 7.38576923 -1.28724465 8.72641268 -3 10 C-2.39009109 6.44219804 -1.4216319 3.3171411 0 0 Z " fill="#257175" transform="translate(150,381)"/>
<path d="M0 0 C2 3 2 3 1.625 5.1875 C1.41875 5.785625 1.2125 6.38375 1 7 C0.34 7 -0.32 7 -1 7 C-1 8.65 -1 10.3 -1 12 C-1.66 12 -2.32 12 -3 12 C-2.69230293 10.18667846 -2.37870936 8.37435655 -2.0625 6.5625 C-1.80146484 5.04849609 -1.80146484 5.04849609 -1.53515625 3.50390625 C-1 1 -1 1 0 0 Z " fill="#E4F6F6" transform="translate(442,330)"/>
<path d="M0 0 C2.31 0 4.62 0 7 0 C7.33 0.66 7.66 1.32 8 2 C3.23692563 2.95261487 -1.1666528 3.08333357 -6 3 C-6 2.67 -6 2.34 -6 2 C-4.02 2 -2.04 2 0 2 C0 1.34 0 0.68 0 0 Z " fill="#338F96" transform="translate(692,736)"/>
<path d="M0 0 C-8.261959 4.40774487 -8.261959 4.40774487 -13 5 C-13.33 4.34 -13.66 3.68 -14 3 C-12.04486839 2.303447 -10.08577524 1.61800435 -8.125 0.9375 C-7.03445313 0.55464844 -5.94390625 0.17179688 -4.8203125 -0.22265625 C-2 -1 -2 -1 0 0 Z " fill="#DCF5F6" transform="translate(745,726)"/>
<path d="M0 0 C0.99 0.33 1.98 0.66 3 1 C3 1.66 3 2.32 3 3 C1.46875 4.2890625 1.46875 4.2890625 -0.5 5.625 C-1.1496875 6.07101562 -1.799375 6.51703125 -2.46875 6.9765625 C-2.9740625 7.31429687 -3.479375 7.65203125 -4 8 C-4.66 7.67 -5.32 7.34 -6 7 C-5 5 -5 5 -2 4 C-2 3.01 -2 2.02 -2 1 C-1.34 0.67 -0.68 0.34 0 0 Z " fill="#3499A4" transform="translate(798,690)"/>
<path d="M0 0 C0.99 0.33 1.98 0.66 3 1 C0.36 3.64 -2.28 6.28 -5 9 C-5.33 8.01 -5.66 7.02 -6 6 C-4.71034824 4.62437146 -3.37310707 3.29233607 -2 2 C-1.34 2 -0.68 2 0 2 C0 1.34 0 0.68 0 0 Z " fill="#339398" transform="translate(823,669)"/>
<path d="M0 0 C0.66 0.66 1.32 1.32 2 2 C0.35 5.3 -1.3 8.6 -3 12 C-4.31223496 8.06329512 -3.24296256 5.87511856 -2 2 C-1.34 2 -0.68 2 0 2 C0 1.34 0 0.68 0 0 Z " fill="#328F96" transform="translate(619,616)"/>
<path d="M0 0 C2.12508244 3.18762365 2.5020163 5.26512223 3 9 C2.67 8.34 2.34 7.68 2 7 C0.68 7.33 -0.64 7.66 -2 8 C-2.33 6.68 -2.66 5.36 -3 4 C-2.34 3.67 -1.68 3.34 -1 3 C-0.67 2.01 -0.34 1.02 0 0 Z " fill="#238991" transform="translate(531,601)"/>
<path d="M0 0 C1.0625 1.875 1.0625 1.875 2 4 C1.67 4.66 1.34 5.32 1 6 C0.34 6 -0.32 6 -1 6 C-1.33 6.99 -1.66 7.98 -2 9 C-2.66 7.68 -3.32 6.36 -4 5 C-3.34 4.01 -2.68 3.02 -2 2 C-1.34 2 -0.68 2 0 2 C0 1.34 0 0.68 0 0 Z " fill="#34AEB8" transform="translate(880,575)"/>
<path d="M0 0 C2 2 2 2 2 6 C2.99 6 3.98 6 5 6 C5.33 7.32 5.66 8.64 6 10 C5.01 10.66 4.02 11.32 3 12 C2.49440092 10.56445975 1.9957251 9.1264798 1.5 7.6875 C1.2215625 6.88699219 0.943125 6.08648437 0.65625 5.26171875 C0 3 0 3 0 0 Z " fill="#257C81" transform="translate(529,482)"/>
<path d="M0 0 C2.09715785 3.14573677 2.52004559 5.01456251 3.125 8.6875 C3.29257812 9.68136719 3.46015625 10.67523438 3.6328125 11.69921875 C3.75398438 12.45847656 3.87515625 13.21773438 4 14 C3.01 13.67 2.02 13.34 1 13 C0.67 8.71 0.34 4.42 0 0 Z " fill="#2D7A7F" transform="translate(486,447)"/>
<path d="M0 0 C2.0625 0.4375 2.0625 0.4375 4 1 C4.33 2.32 4.66 3.64 5 5 C3.68 5 2.36 5 1 5 C0.34 3.68 -0.32 2.36 -1 1 C-0.67 0.67 -0.34 0.34 0 0 Z " fill="#28A2AF" transform="translate(839,332)"/>
<path d="M0 0 C1.07310858 3.27185553 0.89263102 5.42947592 0.0625 8.75 C-0.22947266 9.94882812 -0.22947266 9.94882812 -0.52734375 11.171875 C-0.68332031 11.77515625 -0.83929688 12.3784375 -1 13 C-1.33 13 -1.66 13 -2 13 C-2.2493357 11.39884424 -2.47378648 9.79379841 -2.6875 8.1875 C-2.81511719 7.29417969 -2.94273437 6.40085937 -3.07421875 5.48046875 C-3 3 -3 3 -1.51953125 1.17578125 C-1.01808594 0.78777344 -0.51664062 0.39976562 0 0 Z " fill="#28797E" transform="translate(443,317)"/>
<path d="M0 0 C0.99 0.33 1.98 0.66 3 1 C3 1.66 3 2.32 3 3 C2.34 3 1.68 3 1 3 C1 3.66 1 4.32 1 5 C-0.97746603 5.73080266 -2.98072489 6.39421747 -5 7 C-5.66 6.67 -6.32 6.34 -7 6 C-6.030625 5.38125 -5.06125 4.7625 -4.0625 4.125 C-0.97164638 2.34321154 -0.97164638 2.34321154 0 0 Z " fill="#218387" transform="translate(259,274)"/>
<path d="M0 0 C0 0.99 0 1.98 0 3 C-3.13498292 4.85776765 -5.37471432 5.20140476 -9 5 C-2.87096774 0 -2.87096774 0 0 0 Z " fill="#E4F7F9" transform="translate(774,711)"/>
<path d="M0 0 C1.37871915 3.82977542 0.87113444 7.07989501 0 11 C-0.99 11.66 -1.98 12.32 -3 13 C-3.27429625 7.60550707 -3.36055646 4.48074195 0 0 Z " fill="#30B1BE" transform="translate(876,583)"/>
<path d="M0 0 C-1.70828921 2.10633718 -2.52148416 2.93801608 -5.26171875 3.29296875 C-6.06222656 3.25816406 -6.86273438 3.22335937 -7.6875 3.1875 C-8.49574219 3.16042969 -9.30398438 3.13335938 -10.13671875 3.10546875 C-10.75160156 3.07066406 -11.36648438 3.03585937 -12 3 C-3.11538462 -1.55769231 -3.11538462 -1.55769231 0 0 Z " fill="#2B8184" transform="translate(410,534)"/>
<path d="M0 0 C0.33 0 0.66 0 1 0 C2.03590199 5.05002222 2.10251672 9.87416389 2 15 C1.67 15 1.34 15 1 15 C1 13.35 1 11.7 1 10 C0.34 10 -0.32 10 -1 10 C-0.67 6.7 -0.34 3.4 0 0 Z " fill="#28818B" transform="translate(893,444)"/>
<path d="M0 0 C3.93673644 1.31224548 6.22719294 2.91910327 9 6 C5.7 5.34 2.4 4.68 -1 4 C-0.67 2.68 -0.34 1.36 0 0 Z " fill="#2E8991" transform="translate(797,292)"/>
<path d="M0 0 C5.07865169 1.26966292 5.07865169 1.26966292 7 4 C6.67 5.32 6.34 6.64 6 8 C4.02 5.36 2.04 2.72 0 0 Z " fill="#32848B" transform="translate(192,658)"/>
<path d="M0 0 C0.33 0 0.66 0 1 0 C1 1.65 1 3.3 1 5 C1.66 5 2.32 5 3 5 C2.34 7.31 1.68 9.62 1 12 C-1.83022097 8.00439392 -0.76210446 4.57262677 0 0 Z " fill="#3CB0BD" transform="translate(893,454)"/>
<path d="M0 0 C0 3.29223784 -0.50518132 5.08510357 -2 8 C-4.125 9.3125 -4.125 9.3125 -6 10 C-4.6302836 6.00499382 -2.74277578 3.19990508 0 0 Z " fill="#246D70" transform="translate(172,344)"/>
<path d="M0 0 C0.33 0 0.66 0 1 0 C0.88490339 1.41750563 0.75746342 2.83401169 0.625 4.25 C0.55539062 5.03890625 0.48578125 5.8278125 0.4140625 6.640625 C0 9 0 9 -2 13 C-2 9.7 -2 6.4 -2 3 C-1.34 3 -0.68 3 0 3 C0 2.01 0 1.02 0 0 Z " fill="#29787E" transform="translate(440,331)"/>
<path d="M0 0 C1.97194115 1.97194115 2.832365 3.50904533 4 6 C4.33 6.66 4.66 7.32 5 8 C1.56404834 6.47291037 -1.11912454 4.40072955 -4 2 C-2.68 1.34 -1.36 0.68 0 0 Z " fill="#E2F5F7" transform="translate(804,291)"/>
<path d="M0 0 C2.22825644 2.22825644 2.69239369 3.65761628 3.625 6.625 C4.01558594 7.85089844 4.01558594 7.85089844 4.4140625 9.1015625 C4.60742188 9.72804688 4.80078125 10.35453125 5 11 C4.01 11 3.02 11 2 11 C1.34 7.37 0.68 3.74 0 0 Z " fill="#2B878A" transform="translate(554,669)"/>
<path d="M0 0 C3.16115776 1.36983503 3.9927092 1.9890638 6 5 C5.34 5.66 4.68 6.32 4 7 C1 5 1 5 0.3125 2.375 C0.209375 1.59125 0.10625 0.8075 0 0 Z " fill="#E8FAFB" transform="translate(188,656)"/>
<path d="M0 0 C2.475 0.99 2.475 0.99 5 2 C4.67 3.32 4.34 4.64 4 6 C3.01 6 2.02 6 1 6 C2 4 2 4 3 3 C1.68 2.67 0.36 2.34 -1 2 C-0.67 1.34 -0.34 0.68 0 0 Z " fill="#2BB5C1" transform="translate(833,650)"/>
<path d="M0 0 C1.1875 1.5625 1.1875 1.5625 2 4 C0.625 7.75 0.625 7.75 -1 11 C-1.91058531 7.92677456 -2.08886184 5.19902639 -2 2 C-1.34 2 -0.68 2 0 2 C0 1.34 0 0.68 0 0 Z " fill="#30A3AF" transform="translate(616,626)"/>
<path d="M0 0 C0.66 0.33 1.32 0.66 2 1 C0.515 6.445 0.515 6.445 -1 12 C-1.66 11.34 -2.32 10.68 -3 10 C-2.75 8.25 -2.75 8.25 -2 6 C-1.649375 4.9275 -1.29875 3.855 -0.9375 2.75 C-0.4734375 1.38875 -0.4734375 1.38875 0 0 Z " fill="#D7F2F2" transform="translate(630,568)"/>
<path d="M0 0 C1.61949011 2.57213134 2.04408751 3.67669159 1.625 6.75 C1.41875 7.4925 1.2125 8.235 1 9 C0.67 8.01 0.34 7.02 0 6 C-0.66 5.67 -1.32 5.34 -2 5 C-1.125 1.125 -1.125 1.125 0 0 Z " fill="#238D92" transform="translate(404,484)"/>
<path d="M0 0 C2.56616632 3.84924948 2.55097676 6.4349304 3 11 C2.01 10.67 1.02 10.34 0 10 C0 6.7 0 3.4 0 0 Z " fill="#247B7F" transform="translate(475,404)"/>
<path d="M0 0 C1.65 1.65 3.3 3.3 5 5 C4.67 5.99 4.34 6.98 4 8 C2.0625 7.6875 2.0625 7.6875 0 7 C-1.04449911 3.86650268 -0.93423645 3.01031744 0 0 Z " fill="#258990" transform="translate(462,382)"/>
<path d="M0 0 C3.9492568 0.55105909 7.34920174 1.38935371 11 3 C11 3.33 11 3.66 11 4 C4.25 4.125 4.25 4.125 2 3 C2 2.34 2 1.68 2 1 C1.34 0.67 0.68 0.34 0 0 Z " fill="#30878A" transform="translate(747,268)"/>
<path d="M0 0 C1.32 0.66 2.64 1.32 4 2 C3.34 3.65 2.68 5.3 2 7 C0.68 5.68 -0.64 4.36 -2 3 C-1.34 2.67 -0.68 2.34 0 2 C0 1.34 0 0.68 0 0 Z " fill="#1D8388" transform="translate(289,265)"/>
<path d="M0 0 C2.97 0.495 2.97 0.495 6 1 C5.01 2.98 4.02 4.96 3 7 C1.25372522 4.38058783 0.61277612 2.96175123 0 0 Z " fill="#E0EDEE" transform="translate(528,591)"/>
<path d="M0 0 C2.76223278 2.76223278 2.57856291 5.20706617 3 9 C2.01 8.67 1.02 8.34 0 8 C0 5.36 0 2.72 0 0 Z " fill="#2F878E" transform="translate(525,583)"/>
<path d="M0 0 C0.99 0.66 1.98 1.32 3 2 C2.1875 4.4375 2.1875 4.4375 1 7 C0.01 7.33 -0.98 7.66 -2 8 C-1.34 5.36 -0.68 2.72 0 0 Z " fill="#EBF8FB" transform="translate(883,573)"/>
<path d="M0 0 C0.99 0 1.98 0 3 0 C1.73058503 3.91402949 0.48832306 5.79072873 -3 8 C-2.67 6.02 -2.34 4.04 -2 2 C-1.34 2 -0.68 2 0 2 C0 1.34 0 0.68 0 0 Z " fill="#E8FAFC" transform="translate(428,513)"/>
<path d="M0 0 C1.32 0.33 2.64 0.66 4 1 C3.67 3.31 3.34 5.62 3 8 C2.34 8 1.68 8 1 8 C0.67 5.36 0.34 2.72 0 0 Z " fill="#2C7D86" transform="translate(506,399)"/>
<path d="M0 0 C0.98726527 2.66561622 1.0275526 3.90126985 0.25 6.6875 C-1 9 -1 9 -4 10 C-2.8905928 6.51329166 -1.73662334 3.22515763 0 0 Z " fill="#226B6E" transform="translate(157,367)"/>
<path d="M0 0 C3.37503669 1.1858237 5.64722731 2.27573689 8 5 C5.69 5 3.38 5 1 5 C0.67 3.35 0.34 1.7 0 0 Z " fill="#2F898F" transform="translate(789,287)"/>
<path d="M0 0 C1.98 0 3.96 0 6 0 C6.33 0.99 6.66 1.98 7 3 C5.1875 3.6875 5.1875 3.6875 3 4 C1.25 2.625 1.25 2.625 0 1 C0 0.67 0 0.34 0 0 Z " fill="#2B99A9" transform="translate(704,260)"/>
<path d="M0 0 C0.66 0.33 1.32 0.66 2 1 C1.67 2.32 1.34 3.64 1 5 C2.32 5.66 3.64 6.32 5 7 C0.25 6.125 0.25 6.125 -2 5 C-2 4.01 -2 3.02 -2 2 C-1.34 2 -0.68 2 0 2 C0 1.34 0 0.68 0 0 Z " fill="#28878E" transform="translate(277,716)"/>
<path d="M0 0 C0.66 0.33 1.32 0.66 2 1 C1.34 2.98 0.68 4.96 0 7 C-1.32 6.67 -2.64 6.34 -4 6 C-2.68 4.02 -1.36 2.04 0 0 Z " fill="#37B4BF" transform="translate(806,682)"/>
<path d="M0 0 C0.99 0 1.98 0 3 0 C3 0.66 3 1.32 3 2 C3.99 2.33 4.98 2.66 6 3 C5.67 4.32 5.34 5.64 5 7 C0 1.125 0 1.125 0 0 Z " fill="#DFF3F6" transform="translate(560,681)"/>
<path d="M0 0 C0.33 0.66 0.66 1.32 1 2 C0.00390625 3.9453125 0.00390625 3.9453125 -1.4375 6.125 C-1.91058594 6.84945312 -2.38367188 7.57390625 -2.87109375 8.3203125 C-3.24363281 8.87460937 -3.61617187 9.42890625 -4 10 C-4.33 9.34 -4.66 8.68 -5 8 C-4.0625 5.375 -4.0625 5.375 -3 3 C-2.34 3 -1.68 3 -1 3 C-0.67 2.01 -0.34 1.02 0 0 Z " fill="#368F95" transform="translate(862,619)"/>
<path d="M0 0 C1.32 0.66 2.64 1.32 4 2 C3.34 3.65 2.68 5.3 2 7 C1.896875 6.360625 1.79375 5.72125 1.6875 5.0625 C1.460625 4.381875 1.23375 3.70125 1 3 C0.01 2.67 -0.98 2.34 -2 2 C-1.34 1.34 -0.68 0.68 0 0 Z " fill="#2C8F9A" transform="translate(611,515)"/>
<path d="M0 0 C0.33 0 0.66 0 1 0 C1.36923077 6.4 1.36923077 6.4 -0.5 9.4375 C-0.995 9.953125 -1.49 10.46875 -2 11 C-1.85892253 9.54119891 -1.71197585 8.08296449 -1.5625 6.625 C-1.48128906 5.81289063 -1.40007812 5.00078125 -1.31640625 4.1640625 C-1 2 -1 2 0 0 Z " fill="#DBF1F2" transform="translate(414,458)"/>
<path d="M0 0 C3 3.75 3 3.75 3 6 C3.66 6 4.32 6 5 6 C5.33 6.99 5.66 7.98 6 9 C5.34 9.66 4.68 10.32 4 11 C3.32591692 9.73308493 2.66099503 8.46129251 2 7.1875 C1.62875 6.47980469 1.2575 5.77210938 0.875 5.04296875 C0 3 0 3 0 0 Z " fill="#37A6AD" transform="translate(873,381)"/>
<path d="M0 0 C1.5 1.3125 1.5 1.3125 3 3 C3 3.99 3 4.98 3 6 C3.66 6 4.32 6 5 6 C4.67 6.99 4.34 7.98 4 9 C-0.00390625 4.60546875 -0.00390625 4.60546875 -1 3 C-0.67 2.01 -0.34 1.02 0 0 Z " fill="#DEF6F8" transform="translate(850,337)"/>
<path d="M0 0 C0.6875 1.8125 0.6875 1.8125 1 4 C-0.4375 5.75 -0.4375 5.75 -2 7 C-2.99 6.67 -3.98 6.34 -5 6 C-3.35 4.02 -1.7 2.04 0 0 Z " fill="#2A7176" transform="translate(178,336)"/>
<path d="M0 0 C0.66 0.33 1.32 0.66 2 1 C-1.465 3.97 -1.465 3.97 -5 7 C-5 5.68 -5 4.36 -5 3 C-2.625 1.1875 -2.625 1.1875 0 0 Z " fill="#E3F6F7" transform="translate(197,313)"/>
<path d="M0 0 C1.98 0.66 3.96 1.32 6 2 C6.33 3.98 6.66 5.96 7 8 C4.35247996 5.42215154 2.05567935 3.08351902 0 0 Z " fill="#2A7376" transform="translate(475,299)"/>
<path d="M0 0 C3.65316671 1.24976756 4.78065836 1.67098753 7 5 C4.625 4.75 4.625 4.75 2 4 C0.6875 1.9375 0.6875 1.9375 0 0 Z " fill="#31939A" transform="translate(230,692)"/>
<path d="M0 0 C4.875 4.75 4.875 4.75 6 7 C3.13275314 6.42655063 2.1385485 6.1385485 0 4 C0 2.68 0 1.36 0 0 Z " fill="#2E868B" transform="translate(560,682)"/>
<path d="M0 0 C0 3 0 3 -2 5.1875 C-2.66 5.785625 -3.32 6.38375 -4 7 C-4.33 5.68 -4.66 4.36 -5 3 C-3.35 2.01 -1.7 1.02 0 0 Z " fill="#30939D" transform="translate(850,638)"/>
<path d="M0 0 C0.66 0.33 1.32 0.66 2 1 C2 3.97 2 6.94 2 10 C0.23934164 7.35901246 -0.52722899 6.0257345 -1 3 C-0.67 2.01 -0.34 1.02 0 0 Z " fill="#2E848E" transform="translate(539,511)"/>
<path d="M0 0 C0.99 1.32 1.98 2.64 3 4 C2.01 5.485 2.01 5.485 1 7 C0.34 6.34 -0.32 5.68 -1 5 C-1.66 4.67 -2.32 4.34 -3 4 C-3 3.34 -3 2.68 -3 2 C-2.01 1.34 -1.02 0.68 0 0 Z " fill="#23858F" transform="translate(420,416)"/>
<path d="M0 0 C0.66 0 1.32 0 2 0 C2 1.98 2 3.96 2 6 C0.68 5.67 -0.64 5.34 -2 5 C-1.125 1.125 -1.125 1.125 0 0 Z " fill="#258389" transform="translate(212,303)"/>
</svg>
